<?xml version="1.0" standalone="no"?>
<!DOCTYPE svg PUBLIC "-//W3C//DTD SVG 20010904//EN"
 "http://www.w3.org/TR/2001/REC-SVG-20010904/DTD/svg10.dtd">
<svg version="1.0" xmlns="http://www.w3.org/2000/svg"
 width="1080.000000pt" height="1080.000000pt" viewBox="0 0 1080.000000 1080.000000"
 preserveAspectRatio="xMidYMid meet">
<metadata>
Created by potrace 1.16, written by Peter Selinger 2001-2019
</metadata>
<g transform="translate(0.000000,1080.000000) scale(0.100000,-0.100000)"
fill="#000000" stroke="none">
<path d="M3060 6915 l0 -1505 -890 0 -890 0 0 -1665 0 -1665 1969 0 1968 0 7
-71 7 -70 122 5 c67 4 412 13 767 21 355 8 708 17 785 21 l141 6 -13 106 c-7
59 -29 253 -48 432 -52 488 -65 593 -76 616 -11 23 -61 44 -101 44 -15 0 -34
7 -42 16 -9 8 -22 14 -29 11 -6 -2 -21 0 -32 6 -18 9 -19 9 -6 -6 7 -10 24
-17 37 -17 13 0 24 -4 24 -10 0 -11 -53 -40 -74 -40 -25 0 -28 -19 -7 -42 12
-12 21 -17 21 -12 0 5 9 10 19 10 27 0 9 -22 -24 -30 -14 -4 -25 -12 -25 -20
0 -10 12 -11 57 -4 31 5 62 8 69 6 8 -2 -11 -39 -52 -98 -93 -135 -91 -126
-58 -264 l7 -29 -22 22 c-11 11 -27 21 -35 21 -7 0 -16 10 -19 22 -8 30 -22
16 -98 -94 -40 -59 -54 -86 -41 -79 30 16 70 13 80 -6 9 -15 14 -15 71 1 64
18 81 16 81 -11 0 -10 5 -13 18 -8 9 4 35 9 57 12 75 9 115 -60 76 -131 l-22
-40 38 -33 c21 -18 41 -32 46 -33 16 0 6 -20 -21 -39 l-28 -20 -45 30 c-53 35
-57 35 -61 7 -3 -20 -10 -23 -51 -26 -33 -2 -47 0 -42 7 10 17 -11 13 -67 -11
-49 -21 -51 -21 -64 -3 -7 10 -15 23 -17 28 -2 7 -24 3 -61 -11 -59 -22 -76
-22 -76 3 0 8 -10 20 -22 26 -19 10 -24 9 -36 -10 -14 -21 -56 -29 -66 -13 -3
5 8 7 23 4 22 -3 29 1 34 17 7 29 35 26 65 -7 l26 -28 54 20 c53 19 55 19 68
1 7 -10 15 -23 17 -29 2 -6 27 0 64 17 70 31 73 32 73 12 0 -10 11 -15 35 -15
30 0 35 3 35 23 0 37 9 38 60 6 54 -33 63 -35 81 -13 11 13 6 21 -32 54 -41
36 -43 40 -30 62 l14 23 -26 -24 -26 -24 24 -19 c14 -11 25 -23 25 -28 0 -11
-57 5 -76 21 -15 12 -19 6 -26 -36 -2 -11 -11 -21 -21 -23 -16 -3 -18 2 -15
50 2 29 6 55 9 58 4 3 10 16 14 29 6 20 4 23 -9 18 -10 -4 -20 2 -29 18 -12
23 -14 24 -34 10 -15 -11 -22 -25 -20 -44 1 -16 5 -27 10 -24 4 2 7 0 7 -6 0
-5 -14 -16 -30 -25 -29 -14 -31 -14 -47 11 -14 21 -14 28 -4 45 11 18 10 24
-7 41 -19 18 -24 19 -53 7 -20 -9 -27 -16 -18 -18 26 -8 59 -45 59 -67 0 -33
-27 -63 -68 -75 -62 -17 -65 -12 -22 32 l42 41 -28 15 c-16 8 -37 21 -46 30
-16 14 -18 14 -18 0 0 -9 -9 -35 -19 -59 -15 -33 -21 -40 -26 -27 -4 9 -4 22
0 28 3 5 -1 10 -10 10 -16 0 -14 22 6 78 5 13 9 31 9 40 0 27 -18 0 -23 -35
-8 -52 -48 -173 -57 -173 -34 0 -38 12 -39 111 -1 71 2 99 11 99 9 0 9 3 0 12
-8 8 -12 50 -12 121 0 100 1 109 18 102 9 -5 26 -8 36 -9 25 0 66 -38 66 -60
0 -21 -38 -21 -70 1 -14 9 -6 -1 16 -23 23 -21 44 -49 48 -61 5 -17 15 -23 36
-23 31 0 69 43 139 157 35 57 37 63 17 63 -14 0 -26 20 -33 54 -3 16 -1 17 12
6 8 -7 15 -18 15 -25 0 -15 27 -28 41 -19 5 3 9 24 9 47 0 38 -1 39 -14 21
-14 -18 -15 -18 -28 -1 -8 10 -20 19 -28 20 -27 4 -39 17 -34 35 5 14 4 15 -5
2 -15 -21 -14 -47 2 -57 17 -10 29 -43 16 -43 -12 0 -82 51 -87 63 -2 4 -16
14 -32 22 -27 14 -28 14 -34 -23 -3 -20 -6 -54 -6 -74 0 -42 -8 -68 -21 -68
-14 0 -10 101 6 145 19 52 19 55 -3 55 -11 0 -26 8 -36 18 -15 17 -15 22 -2
54 10 22 26 40 45 48 41 16 50 30 40 58 -6 15 -16 22 -36 22 -32 0 -63 -43
-63 -88 -1 -15 -7 -38 -15 -52 -13 -23 -14 -14 -15 93 0 129 5 138 57 97 14
-11 30 -20 35 -20 16 0 -13 41 -35 50 -61 25 -57 -4 -57 479 l0 441 134 0
c131 0 217 -14 365 -59 19 -6 37 -8 42 -6 4 3 18 1 31 -4 12 -4 33 -5 45 0 17
6 26 3 37 -13 9 -12 28 -23 43 -24 30 -2 97 -17 153 -33 36 -11 79 -21 218
-51 50 -11 90 -26 100 -37 9 -10 44 -28 76 -38 33 -11 74 -32 93 -47 31 -24
89 -43 158 -52 17 -2 46 -11 66 -19 20 -9 74 -19 120 -22 94 -8 159 -33 247
-96 45 -32 58 -36 78 -29 22 9 27 6 45 -25 20 -34 51 -46 64 -25 3 5 22 -6 42
-25 25 -24 45 -35 65 -35 19 0 40 -10 58 -29 41 -40 114 -81 145 -81 14 0 60
-16 102 -35 42 -19 103 -39 136 -45 33 -5 65 -14 71 -20 5 -5 23 -10 39 -10
16 0 36 -8 45 -19 20 -22 92 -51 128 -51 l25 0 -5 88 c-5 108 -14 152 -32 152
-8 0 -14 9 -14 20 0 11 4 20 9 20 5 0 16 7 24 15 14 13 33 12 173 -5 87 -11
161 -24 164 -31 4 -6 15 -57 24 -112 9 -56 27 -158 40 -227 l23 -125 41 -3 42
-3 0 670 0 670 -136 3 -136 3 1 263 c2 255 1 262 -18 262 -25 0 -37 18 -22 33
8 8 11 6 11 -6 0 -9 7 -17 15 -17 13 0 15 55 15 435 0 239 -2 435 -5 435 -2 0
-26 -13 -52 -28 -27 -16 -62 -34 -78 -40 -28 -10 -27 -10 25 -11 l55 -1 -85
-35 c-87 -36 -121 -42 -164 -26 -43 17 -37 42 26 99 52 48 58 57 55 90 -1 20
-6 40 -10 43 -5 3 16 9 45 12 29 4 75 18 102 32 27 14 58 25 68 25 17 0 18 16
18 291 l0 292 -30 -6 c-17 -4 -30 -2 -30 4 0 5 14 12 30 16 34 6 38 20 13 39
-22 17 -64 18 -97 2 -24 -10 -24 -12 -8 -24 16 -12 15 -13 -5 -14 -19 0 -23
-6 -23 -31 0 -30 -25 -67 -37 -55 -3 3 -1 17 5 30 34 76 21 157 -33 192 -19
12 -22 20 -15 33 7 13 5 18 -6 18 -8 0 -13 -6 -10 -12 10 -27 -13 -39 -68 -37
-46 1 -58 -2 -68 -17 -11 -18 -13 -18 -25 -3 -13 15 -13 15 -8 -5 4 -16 0 -25
-15 -33 -23 -12 -40 -6 -40 16 0 11 -7 13 -27 8 -24 -6 -26 -5 -16 7 9 11 7
16 -13 26 -14 6 -24 7 -24 1 0 -5 -5 -6 -10 -3 -8 5 -7 11 1 21 13 16 4 48
-11 39 -5 -3 -18 -1 -27 4 -10 6 -12 11 -5 11 25 0 11 20 -15 21 -18 1 -21 3
-10 6 16 4 16 7 -5 36 -12 17 -17 27 -10 23 7 -4 12 -2 12 5 0 7 3 9 7 6 3 -4
12 -2 18 3 9 8 11 3 7 -17 -2 -16 -1 -25 3 -21 5 4 15 2 23 -5 13 -9 14 -9 8
1 -4 6 -2 12 3 12 6 0 11 5 11 11 0 6 -6 9 -12 6 -8 -2 -17 10 -23 26 -12 35
-36 49 -30 18 2 -12 0 -21 -6 -21 -5 0 -9 5 -9 11 0 5 -4 7 -10 4 -6 -3 -7 1
-4 10 4 10 -3 27 -19 43 -35 37 -45 79 -20 85 14 3 11 6 -11 12 -16 4 -45 4
-65 -1 -34 -9 -36 -11 -35 -48 1 -21 8 -42 15 -47 12 -7 11 -9 -1 -9 -21 1
-50 24 -50 41 0 25 -16 40 -34 33 -12 -5 -16 -14 -13 -31 3 -15 -2 -27 -12
-33 -12 -7 -9 -9 16 -10 17 0 39 -3 48 -6 15 -6 14 -10 -8 -28 -28 -24 -45
-76 -25 -76 7 1 24 7 38 15 29 17 40 18 40 6 0 -5 -15 -14 -32 -22 -18 -7 -50
-23 -70 -36 -60 -37 -71 -32 -66 27 3 28 1 50 -3 50 -5 0 -9 -6 -9 -14 0 -7
-23 -31 -52 -52 -28 -21 -54 -46 -56 -53 -3 -8 15 -1 38 17 54 39 60 40 60 5
0 -22 -16 -42 -71 -92 -38 -35 -73 -60 -77 -56 -4 4 14 26 41 50 26 24 47 49
47 56 0 7 -15 -1 -33 -19 -69 -67 -79 -25 -12 47 38 41 47 58 55 106 10 62 26
81 75 92 l30 7 -25 7 -25 7 25 2 c23 1 23 2 5 10 -25 11 -58 12 -52 3 2 -5 -6
-19 -20 -33 l-24 -25 5 28 c4 21 1 27 -12 27 -21 0 -37 -11 -38 -27 -2 -28 -4
-33 -15 -33 -5 0 -7 5 -4 10 3 6 0 10 -7 10 -9 0 -9 3 2 10 10 6 11 10 3 10
-18 0 -53 -37 -53 -55 0 -18 -2 -18 -35 -3 -29 13 -32 25 -7 31 9 3 -4 5 -30
6 -43 1 -48 4 -48 24 0 27 -10 42 -30 43 -8 1 -24 5 -34 10 -13 5 -17 4 -13
-3 4 -6 -1 -13 -11 -15 -13 -4 -17 2 -17 26 0 25 -4 30 -19 28 -11 -2 -15 1
-11 7 3 6 -5 15 -19 21 -25 9 -36 30 -17 30 5 0 12 7 15 15 4 10 -7 6 -29 -10
-18 -15 -36 -32 -38 -38 -3 -8 -11 -3 -22 11 -13 18 -20 20 -36 11 -29 -15
-59 -2 -59 27 0 13 0 26 0 29 0 3 1 4 3 3 6 -5 37 31 37 43 0 9 -3 9 -14 0
-12 -10 -19 -8 -34 7 -20 20 -20 20 -41 1 -12 -11 -21 -15 -21 -9 0 5 -5 10
-12 10 -7 0 -5 -6 4 -17 25 -29 32 -62 14 -69 -21 -8 -21 -24 0 -24 9 0 12 -5
8 -12 -5 -8 2 -9 26 -5 26 6 30 4 21 -6 -8 -10 -7 -14 7 -13 48 0 72 -5 72
-14 0 -7 -19 -8 -51 -5 -46 6 -50 4 -37 -9 8 -8 31 -18 51 -21 38 -7 56 -32
35 -48 -9 -6 -8 -7 5 -3 10 3 21 6 23 6 3 0 2 5 -1 10 -3 6 -1 10 6 10 8 0 8
4 -1 15 -7 8 -10 22 -6 31 7 19 47 15 54 -6 5 -13 3 -13 -11 -1 -14 11 -18 11
-23 -2 -8 -21 3 -37 24 -38 12 0 9 -4 -8 -11 -25 -11 -25 -11 -2 -15 23 -5 30
-19 11 -25 -6 -2 2 -9 17 -16 27 -11 27 -11 10 3 -19 14 -19 15 7 15 15 0 30
1 35 3 4 1 8 -8 10 -20 2 -14 10 -22 20 -21 38 3 51 -2 46 -17 -4 -8 1 -17 10
-21 9 -3 16 -12 16 -19 0 -17 -32 -14 -46 4 -10 12 -18 12 -58 -1 -31 -10 -46
-12 -46 -4 0 6 -7 2 -15 -8 -14 -18 -20 -15 -16 8 1 4 -3 14 -10 22 -6 7 -8
18 -4 24 4 7 -1 6 -14 -2 -20 -12 -20 -13 -1 -23 19 -10 19 -12 3 -28 -16 -16
-16 -17 0 -17 20 0 21 -4 7 -31 -9 -16 -7 -19 10 -19 13 0 20 -7 20 -20 0 -11
-4 -20 -10 -20 -5 0 -10 7 -10 15 0 12 -10 15 -47 12 -40 -2 -47 -6 -50 -27
-2 -13 -8 -29 -14 -36 -16 -20 -1 -34 36 -34 19 0 37 -4 40 -10 9 -15 -4 -32
-18 -23 -12 8 -17 9 -50 11 -10 1 -16 6 -12 11 7 13 -36 26 -44 13 -3 -5 -17
-8 -31 -6 -14 1 -29 3 -35 3 -5 1 -4 5 2 9 10 6 10 12 -3 28 -8 10 -13 12 -9
4 4 -10 2 -9 -8 3 -20 23 -36 21 -42 -6 -4 -13 -14 -23 -25 -23 -10 0 -17 3
-14 7 2 4 -9 22 -26 40 -16 19 -30 37 -30 41 0 14 27 9 40 -7 7 -8 19 -15 26
-15 8 0 14 -5 14 -11 0 -5 -6 -7 -12 -3 -10 5 -10 4 -1 -6 17 -19 25 -8 18 23
-7 27 -20 31 -130 46 -58 8 -91 -1 -80 -19 3 -5 0 -12 -6 -16 -6 -3 -15 0 -20
7 -4 8 -4 16 3 20 16 10 -6 20 -44 19 -58 0 -66 -3 -61 -18 4 -10 8 -11 13 -2
11 19 18 -2 9 -30 -4 -14 -7 -19 -8 -12 -1 6 -11 12 -24 12 -16 0 -26 9 -35
32 -15 39 -26 30 -24 -19 1 -21 -2 -33 -6 -28 -4 6 -16 17 -26 25 -18 14 -19
14 -8 -7 15 -27 16 -56 2 -33 -7 11 -11 9 -19 -13 -6 -15 -16 -27 -22 -27 -8
0 -7 5 2 18 7 9 9 14 5 10 -15 -12 -36 12 -36 41 -1 22 -2 24 -11 9 -16 -29
-29 -21 -23 15 2 17 6 42 7 55 4 30 24 42 57 35 21 -4 30 1 44 21 9 15 21 24
26 21 6 -4 10 -1 10 4 0 6 5 11 11 11 8 0 7 -6 -2 -17 -8 -9 -12 -17 -9 -19 3
-1 1 -6 -4 -11 -5 -5 -6 -3 -2 5 4 6 2 12 -3 12 -6 0 -11 -9 -11 -20 0 -25 24
-26 49 -1 13 13 23 16 35 9 10 -6 20 -7 23 -4 4 3 11 -4 18 -17 6 -12 17 -21
23 -20 7 2 12 -4 12 -12 0 -9 9 -15 21 -15 20 0 21 4 16 41 -3 23 -13 49 -23
58 -16 15 -16 15 -11 -1 4 -10 3 -18 -1 -18 -10 0 -34 41 -28 47 9 10 66 -19
66 -33 0 -16 6 -20 53 -28 38 -7 38 -7 26 16 -7 13 -17 26 -23 31 -8 5 -7 10
2 16 11 7 11 9 -2 14 -9 4 -13 13 -10 22 3 8 1 15 -5 15 -6 0 -11 -9 -11 -21
0 -12 -5 -19 -12 -16 -7 2 -12 15 -10 29 2 22 -2 26 -28 30 -21 3 -27 1 -20
-6 5 -5 10 -17 9 -25 0 -9 -3 -11 -5 -5 -3 7 -13 10 -23 7 -21 -5 -51 21 -51
44 0 9 -6 13 -15 9 -17 -6 -21 19 -5 29 6 3 10 12 10 18 0 7 -7 4 -14 -5 -15
-21 -36 -24 -36 -6 0 9 -3 9 -11 1 -18 -18 -51 -4 -43 19 4 14 0 21 -14 25
-11 2 -23 15 -26 26 -9 33 -7 37 9 31 9 -4 13 -13 10 -23 -3 -12 5 -19 32 -28
44 -14 72 -1 51 24 -10 12 -7 13 18 7 26 -7 28 -6 15 9 -8 10 -9 17 -3 17 6 0
14 -5 17 -10 7 -12 37 -9 46 4 4 5 10 -1 14 -13 7 -23 25 -19 25 5 0 8 -4 12
-10 9 -5 -3 -10 -1 -10 4 0 6 8 11 18 12 10 0 12 3 5 6 -18 7 -16 38 3 57 14
14 18 14 42 0 27 -16 27 -16 5 2 -12 11 -27 30 -32 44 -8 22 -10 22 -10 5 -1
-12 -10 -39 -22 -60 -17 -33 -20 -35 -15 -12 4 17 3 26 -3 23 -5 -3 -11 0 -14
7 -4 10 1 13 17 10 16 -3 22 1 23 16 1 12 -3 21 -8 21 -13 0 -33 20 -42 43 -3
9 -11 17 -17 17 -6 0 -9 -4 -6 -8 3 -5 -8 -9 -24 -10 -25 -1 -30 3 -29 21 0
12 3 16 6 10 6 -16 33 -17 33 -2 0 19 -28 39 -57 40 -23 0 -25 2 -9 8 19 7 19
8 0 16 -10 4 -22 9 -26 9 -3 1 -10 5 -15 10 -5 5 -3 6 5 2 6 -4 12 -3 12 2 0
6 -8 13 -17 16 -12 5 -14 9 -5 18 7 7 12 19 12 27 0 14 -2 14 -10 1 -8 -13 -9
-13 -14 0 -14 43 -14 45 -15 25 -1 -17 -3 -17 -11 -5 -8 12 -10 10 -10 -8 0
-19 -2 -21 -12 -10 -22 23 -38 57 -38 77 0 21 -27 36 -32 19 -3 -7 -10 -8 -18
-3 -10 6 -8 10 10 17 32 12 19 20 -30 20 l-41 -1 27 22 c19 15 29 17 32 9 7
-22 22 -2 23 31 l2 32 6 -30 c3 -16 13 -43 22 -60 9 -16 15 -38 14 -48 -2 -9
1 -14 7 -11 5 4 8 22 6 40 -2 19 -3 34 -1 34 1 0 9 -12 18 -27 l16 -28 -6 33
c-8 39 -29 83 -67 139 -28 42 -36 77 -18 88 5 3 15 -14 22 -37 11 -40 12 -41
16 -14 2 15 12 42 22 58 23 37 16 61 -14 52 -11 -4 -24 -11 -27 -16 -3 -5 -12
-2 -19 7 -11 13 -10 15 6 9 13 -4 9 3 -11 21 -18 15 -23 23 -11 19 15 -6 17
-3 11 14 -4 13 -2 22 4 22 6 0 11 7 11 15 0 8 4 15 9 15 5 0 11 6 14 13 2 6 2
-1 -1 -18 -2 -16 -9 -37 -15 -45 -9 -12 -9 -13 3 -3 11 10 16 9 27 -5 13 -15
13 -15 7 7 -4 15 -1 26 7 32 16 10 29 -7 29 -38 0 -12 7 -26 16 -31 11 -6 15
-17 12 -30 -3 -11 -2 -26 3 -33 6 -10 9 -7 9 11 0 29 19 66 20 40 1 -8 6 -4
12 10 l10 25 17 -37 c28 -60 35 -58 12 2 l-21 55 35 -40 c19 -22 32 -46 29
-54 -3 -10 3 -8 17 5 l23 19 -20 -30 c-37 -55 -39 -58 -16 -46 11 6 23 16 25
23 3 7 6 -5 8 -27 1 -31 3 -34 6 -12 2 15 8 27 13 27 5 0 11 -12 13 -27 3 -23
4 -21 6 9 0 20 5 40 11 43 6 4 7 -1 3 -11 -4 -12 -3 -15 5 -10 7 4 15 0 19 -9
3 -10 1 -20 -5 -24 -6 -4 -7 -12 -3 -20 10 -16 16 -7 26 39 l8 35 9 -32 c11
-42 42 -35 36 8 -5 29 6 40 16 17 5 -13 1 19 -10 69 -5 27 -5 27 14 10 18 -16
20 -16 26 -2 9 24 7 32 -3 16 -7 -11 -12 -9 -22 10 -11 23 -11 23 6 9 17 -14
17 -13 11 10 -6 24 -6 24 9 -2 9 -16 23 -28 31 -28 8 0 12 5 9 10 -4 6 -11 8
-16 5 -5 -3 -6 1 -3 9 3 9 10 13 15 10 20 -12 -6 51 -35 85 -12 13 -16 21 -9
17 6 -3 15 -1 20 6 11 17 43 19 43 3 0 -17 27 -27 34 -12 3 9 7 9 14 -1 6 -9
3 -27 -9 -52 -11 -22 -19 -46 -19 -55 0 -8 -5 -15 -11 -15 -5 0 -7 -5 -4 -10
11 -18 -19 -39 -40 -28 -12 7 -16 7 -11 0 3 -6 2 -22 -4 -37 -15 -39 0 -53 19
-19 12 23 16 25 19 12 2 -10 -7 -32 -19 -50 -19 -26 -20 -30 -6 -25 13 5 17 1
17 -17 0 -14 6 -26 12 -28 8 -3 0 -20 -22 -49 l-34 -44 37 34 c26 24 37 44 39
69 3 33 28 60 28 31 0 -16 48 -59 66 -59 7 0 14 -3 17 -7 2 -5 2 -2 0 5 -2 8
-6 26 -9 40 l-6 27 21 -30 c28 -40 26 -55 -9 -95 -17 -18 -30 -38 -30 -44 0
-6 7 -2 16 9 8 11 24 31 36 45 l22 24 9 -27 c5 -15 13 -25 18 -21 13 8 11 -10
-3 -24 -7 -7 -8 -12 -3 -12 6 0 3 -5 -5 -10 -12 -7 -12 -12 -2 -22 6 -6 13
-35 13 -62 1 -28 3 -43 6 -33 5 20 19 23 26 5 2 -7 8 -10 12 -5 5 4 3 13 -3
19 -7 7 -11 21 -11 32 1 16 2 17 6 4 2 -9 11 -19 19 -22 12 -4 12 -2 4 14 -12
22 -1 27 18 8 7 -7 12 -8 12 -2 0 6 14 10 30 10 27 0 30 -3 30 -32 0 -19 6
-34 15 -38 11 -4 15 1 15 17 0 18 2 19 10 7 8 -13 10 -12 10 4 0 11 3 17 6 13
11 -11 31 17 27 37 -2 12 2 30 10 40 14 19 15 19 30 -10 9 -16 16 -23 17 -16
0 7 -5 22 -10 33 -6 10 -9 19 -6 19 2 0 18 -25 35 -55 17 -30 38 -55 46 -55
20 0 8 27 -16 33 -10 3 -19 13 -19 22 0 9 3 14 8 12 4 -3 7 5 7 18 0 13 -3 21
-7 18 -12 -7 -9 22 3 34 17 17 37 5 32 -20 l-4 -22 17 23 17 22 13 -26 c8 -14
14 -36 14 -48 0 -13 3 -25 6 -28 9 -10 41 26 36 40 -3 8 2 10 13 6 16 -7 16
-5 2 17 -15 23 -14 25 8 42 l24 18 -5 -43 -5 -43 17 35 c14 28 18 31 21 16 3
-10 3 -33 1 -51 -2 -19 0 -31 4 -29 4 3 8 17 8 32 1 26 1 26 15 8 8 -11 15
-16 15 -10 0 5 8 0 16 -11 15 -19 16 -18 12 17 -2 20 0 34 4 32 4 -3 8 0 8 6
0 6 -7 13 -15 16 -8 4 -15 11 -15 17 0 6 12 0 27 -14 14 -13 23 -19 19 -12 -3
6 -2 14 3 18 5 3 14 -3 20 -12 6 -10 11 -13 11 -7 0 15 28 13 34 -2 3 -8 1
-16 -4 -19 -6 -4 -10 -11 -10 -17 0 -6 7 -5 17 3 16 13 16 11 -1 -15 -10 -15
-15 -37 -13 -48 7 -26 -3 -54 -13 -38 -7 11 -15 13 -100 25 -34 5 -42 3 -34
-5 7 -7 22 -10 35 -8 27 3 59 -19 59 -40 0 -9 6 -12 16 -8 8 3 27 -2 41 -11
24 -16 26 -16 35 0 5 10 14 15 19 12 5 -4 7 -11 4 -16 -4 -5 1 -9 10 -9 11 0
15 5 11 15 -3 8 0 14 7 12 7 -1 11 7 9 22 -3 16 0 21 8 16 9 -6 9 -2 1 13 -6
11 -11 23 -11 27 0 3 5 3 11 -1 21 -12 -10 34 -35 54 -19 14 -22 22 -13 31 6
6 16 11 23 11 7 0 15 6 17 13 13 30 33 -33 29 -86 -1 -10 3 -15 8 -12 9 6 15
-8 11 -29 -1 -5 5 -4 13 4 17 14 22 25 7 15 -6 -3 -10 3 -10 12 0 10 -3 32 -6
48 l-7 30 21 -33 c12 -18 21 -40 21 -49 0 -13 3 -14 12 -5 8 8 5 24 -15 63
l-25 51 49 -48 c47 -46 71 -54 29 -9 -24 25 -17 60 13 70 14 4 17 8 10 12 -7
2 -13 11 -13 18 0 7 -9 15 -20 18 -13 3 -20 13 -20 29 l1 23 17 -20 c9 -12 25
-24 35 -28 15 -5 16 -4 7 13 -7 13 -7 21 0 25 6 4 17 -10 25 -29 16 -38 24
-43 43 -24 9 9 13 7 18 -7 5 -12 0 -23 -17 -36 -20 -15 -21 -19 -6 -19 9 0 17
5 17 10 0 6 4 10 10 10 5 0 7 -7 4 -15 -4 -8 -1 -15 6 -15 6 0 14 9 17 20 3
11 8 18 12 16 9 -6 8 40 -1 49 -3 4 -9 -4 -13 -16 -7 -20 -9 -19 -21 18 -8 22
-15 49 -17 60 -2 12 -9 28 -16 37 -12 14 -11 16 5 9 10 -3 22 -12 27 -19 4 -7
14 -11 22 -8 8 4 15 2 15 -4 0 -5 7 -13 16 -16 13 -5 14 -3 6 6 -13 17 -19 97
-7 98 5 1 13 -12 17 -28 5 -16 15 -43 23 -58 l16 -29 -7 40 c-4 22 -11 51 -16
64 -5 15 -5 28 2 36 8 9 3 16 -20 25 -17 7 -33 10 -36 7 -3 -3 -6 -31 -7 -62
-1 -52 -3 -56 -22 -50 -11 4 -38 11 -60 16 -21 6 -45 15 -52 21 -10 8 -13 7
-13 -3 0 -8 -8 -4 -20 9 -11 12 -20 24 -20 28 0 4 -10 19 -22 32 l-23 25 27
-7 c23 -5 27 -3 22 11 -5 14 -4 15 4 4 6 -8 8 -24 6 -36 -3 -15 2 -25 12 -29
15 -6 15 -4 3 11 -13 15 -12 16 6 9 42 -17 49 -17 21 -1 -22 13 -26 19 -15 26
8 5 9 9 3 9 -5 0 -21 14 -33 31 l-23 31 23 -7 c13 -4 35 -17 49 -29 l25 -21
-19 23 c-11 12 -15 22 -10 23 5 0 -1 4 -14 10 -23 9 -22 29 2 29 6 0 22 21 35
48 20 39 25 44 31 28 8 -24 18 -4 15 32 -1 12 0 22 1 22 1 0 15 -25 30 -55 25
-53 57 -91 40 -49 -5 10 -11 28 -14 39 l-5 20 23 -20 23 -20 -14 25 c-8 13
-19 29 -26 35 -9 8 -9 19 1 47 8 21 10 35 5 32 -5 -3 -7 9 -5 27 2 17 9 35 15
38 7 5 2 12 -14 21 -14 7 -25 20 -25 27 0 8 -8 22 -17 31 -16 16 -16 16 -8 -3
5 -11 8 -35 8 -53 -1 -18 2 -30 7 -27 4 3 10 -21 12 -53 3 -56 2 -58 -19 -54
-13 2 -23 9 -23 14 0 5 5 6 12 2 7 -4 8 -3 4 5 -4 6 -11 9 -16 6 -4 -3 -11 7
-14 20 -4 15 -11 23 -18 19 -6 -4 -9 -1 -6 7 3 8 -3 23 -13 34 -16 18 -17 26
-7 60 l12 40 7 -45 c5 -41 6 -42 7 -11 2 33 3 34 16 16 8 -11 12 -23 10 -27
-3 -5 -1 -8 4 -8 17 0 21 28 6 40 -8 7 -14 19 -14 26 0 22 -66 18 -73 -3 -2
-10 -8 -27 -12 -38 l-8 -20 16 20 c19 23 21 17 7 -19 -7 -19 -6 -25 3 -23 7 1
11 -7 9 -20 -2 -13 2 -23 7 -23 6 0 11 -15 11 -32 l-1 -33 -15 28 c-8 15 -19
27 -23 27 -5 0 -7 9 -4 20 3 11 0 21 -6 21 -32 4 -36 6 -33 18 2 9 -5 12 -23
9 -14 -3 -25 -1 -25 3 0 5 -5 9 -11 9 -6 0 -8 -7 -5 -16 3 -9 2 -12 -5 -9 -5
4 -7 15 -4 26 5 14 3 17 -9 13 -9 -4 -23 -1 -31 6 -12 10 -15 10 -15 -3 0 -9
-5 -19 -12 -23 -7 -5 -8 -3 -3 6 5 9 4 11 -3 6 -7 -4 -12 -14 -12 -22 0 -15
-4 -14 -45 24 -17 15 -20 32 -5 32 6 0 10 -7 10 -15 0 -18 17 -20 23 -2 2 6 2
20 -1 30 -5 20 -48 24 -55 5 -4 -10 -6 -10 -6 0 -1 8 -23 12 -75 12 -70 0 -74
-1 -80 -25 -4 -14 -11 -25 -17 -25 -5 0 -20 11 -33 25 -20 21 -32 25 -85 25
-65 0 -91 -13 -84 -41 3 -9 0 -19 -5 -23 -11 -7 -48 31 -39 41 4 4 13 -1 20
-10 11 -16 12 -15 13 7 l2 25 -244 1 c-244 0 -245 0 -253 -22 l-8 -22 -14 22
c-12 20 -22 22 -89 22 -46 0 -81 -5 -88 -12 -8 -8 -12 -8 -12 -1 0 16 -201 18
-211 1 -7 -10 -9 -10 -9 0 0 9 -30 12 -116 12 -101 0 -119 -3 -141 -20 -14
-11 -31 -20 -37 -20 -6 0 -5 4 3 9 7 5 10 14 7 20 -10 15 -63 14 -69 -1 -4
-10 -6 -10 -6 0 -1 6 -8 12 -16 12 -8 0 -15 -6 -15 -12 0 -10 -2 -10 -8 -1
-11 17 -99 14 -106 -3 -7 -19 -32 -18 -40 1 -5 13 -217 15 -1766 15 l-1760 0
0 -1505z m4702 1345 l28 -35 0 40 c-1 32 -3 37 -11 22 -10 -17 -29 -15 -29 4
0 6 4 8 9 5 5 -3 12 5 15 19 4 15 11 22 20 19 10 -4 12 2 9 23 -4 22 -2 25 6
13 6 -8 11 -23 11 -33 0 -10 5 -15 11 -12 6 4 8 13 5 21 -3 8 -1 14 4 14 6 0
10 -12 10 -26 0 -22 2 -25 15 -14 12 10 15 10 16 -1 3 -32 -4 -75 -12 -85 -6
-7 -6 -21 0 -35 5 -13 10 -18 10 -11 1 6 6 12 12 12 6 0 10 -10 9 -22 -3 -37
1 -45 10 -18 7 19 8 13 8 -28 -1 -29 4 -58 10 -64 9 -9 12 -6 12 16 0 17 4 25
11 20 8 -4 9 1 4 17 -7 23 -6 23 8 4 11 -14 12 -25 4 -42 -6 -13 -14 -23 -18
-23 -4 0 -1 -12 7 -27 12 -25 12 -28 -1 -31 -8 -2 -13 -9 -9 -15 3 -7 -4 -1
-15 12 -22 24 -28 47 -11 36 15 -9 11 17 -5 39 -8 10 -12 23 -9 27 3 5 1 9 -5
9 -19 0 -33 -38 -21 -59 8 -16 7 -19 -8 -16 -9 2 -23 4 -30 4 -7 1 -10 6 -7
11 4 6 1 9 -6 8 -6 -2 -14 3 -17 11 -2 8 0 11 6 7 6 -4 8 2 5 14 -3 11 -10 23
-16 27 -5 3 -7 1 -4 -5 5 -6 0 -8 -13 -5 -11 3 -20 10 -20 15 0 5 5 6 10 3 6
-3 10 -1 10 5 0 7 -8 9 -20 5 -10 -3 -30 0 -42 7 -13 7 -26 11 -30 10 -5 -1
-8 5 -8 13 0 9 6 12 15 9 13 -5 13 -2 0 23 -21 43 -30 87 -16 79 6 -4 11 -13
11 -20 0 -21 49 -123 49 -104 1 9 -3 27 -8 40 -5 13 -15 44 -22 71 -10 33 -18
46 -27 42 -10 -4 -12 0 -8 11 5 14 4 15 -9 4 -12 -10 -16 -9 -21 6 -3 11 -10
27 -15 36 -21 40 -6 35 44 -14 28 -29 64 -69 79 -88z m-543 54 c16 30 36 35
29 8 -3 -11 2 -23 13 -30 12 -8 16 -18 12 -29 -5 -12 -2 -15 9 -10 12 4 15 0
11 -16 -4 -21 -4 -21 16 3 11 14 19 30 17 37 -4 9 9 11 32 4 11 -4 17 3 14 19
-2 11 2 20 8 20 6 0 8 -5 5 -10 -4 -6 -1 -18 6 -26 10 -12 14 -12 21 -2 5 8 7
-2 5 -24 -1 -21 -4 -38 -7 -38 -3 0 -18 14 -34 30 -16 17 -31 28 -34 26 -3 -3
7 -15 22 -27 14 -11 24 -24 22 -28 -3 -4 4 -8 15 -8 12 -1 23 7 28 20 l8 21
12 -22 c6 -12 17 -21 23 -19 6 1 13 -4 16 -12 2 -8 0 -11 -6 -7 -6 4 -8 -1 -5
-13 3 -10 -1 -22 -8 -26 -8 -6 -10 -4 -4 6 5 8 -3 2 -18 -13 -28 -30 -48 -76
-27 -63 9 6 11 -3 6 -36 -4 -28 -3 -37 3 -24 8 20 8 20 15 -1 3 -11 5 -44 4
-73 -1 -29 -4 -48 -6 -42 -2 6 -8 9 -12 6 -5 -3 -12 0 -16 6 -4 8 -3 9 4 5 7
-4 12 -2 12 3 0 6 -4 11 -10 11 -5 0 -10 8 -10 19 0 14 -7 18 -30 17 -16 -1
-30 -5 -31 -11 0 -5 -4 -1 -9 10 -6 14 -7 6 -3 -22 7 -51 -5 -55 -35 -13 -24
32 -29 94 -11 120 9 12 10 11 6 -8 -3 -12 -1 -20 4 -16 5 3 9 -1 10 -8 0 -9 2
-9 5 -2 5 13 40 7 64 -10 8 -6 4 3 -10 19 -14 17 -31 34 -37 38 -7 4 -13 13
-13 19 0 7 6 6 15 -2 9 -7 18 -10 21 -7 7 7 -11 27 -47 50 -24 16 -27 16 -41
0 -8 -10 -23 -32 -33 -50 l-18 -31 -29 35 c-33 42 -36 57 -8 48 14 -4 20 -2
18 7 -2 7 2 12 8 11 6 -1 11 4 11 12 0 8 -3 13 -6 11 -9 -6 -26 17 -27 36 -1
15 1 16 20 6 11 -7 25 -11 30 -10 5 2 5 -5 2 -15 -4 -9 -4 -14 0 -10 4 4 13 2
21 -5 11 -9 8 -16 -19 -41 l-33 -29 30 18 c17 10 41 24 55 31 23 12 23 13 4
13 -19 0 -64 48 -64 68 0 13 -38 22 -42 10 -2 -5 -4 14 -5 44 -2 50 -2 51 10
24 l12 -28 14 26z m1490 -107 c1 -5 -4 -5 -11 -1 -7 5 -8 3 -3 -5 5 -9 10 -10
18 -2 29 29 45 -15 21 -61 -16 -30 -16 -32 -1 -19 15 11 17 11 17 -2 0 -18
-15 -29 -62 -45 -43 -15 -73 -5 -83 28 -3 11 -9 20 -13 20 -4 0 -13 4 -21 9
-11 7 -6 15 20 40 19 17 28 31 21 31 -15 0 -6 20 9 20 6 0 7 -4 4 -10 -3 -5
-2 -10 4 -10 6 0 8 -6 5 -13 -3 -9 3 -13 18 -12 18 1 25 10 33 39 7 31 10 34
16 20 4 -11 8 -23 8 -27z m-909 -226 c0 -9 4 -21 9 -26 5 -6 11 -19 14 -30 4
-18 5 -18 6 3 0 12 6 22 12 22 5 0 7 -4 4 -10 -3 -5 -1 -10 4 -10 6 0 11 -8
12 -17 0 -10 6 5 13 32 l12 50 14 -37 c13 -36 30 -51 30 -27 0 5 5 7 10 4 6
-3 10 -15 10 -27 0 -17 -2 -18 -15 -8 -16 13 -18 10 -9 -14 4 -12 11 -13 24
-6 13 7 20 6 23 -3 3 -6 6 -1 7 13 1 23 2 23 10 5 8 -18 9 -18 9 5 l1 24 17
-23 c13 -19 14 -28 4 -42 -6 -11 -7 -19 -1 -19 5 0 7 -6 4 -14 -3 -9 3 -20 15
-28 12 -7 21 -20 22 -28 0 -8 5 -2 11 13 l10 28 21 -43 c11 -24 25 -46 30 -49
6 -4 5 -14 -2 -25 -7 -13 -10 -14 -11 -5 0 8 -3 11 -7 8 -3 -4 -21 9 -39 28
-39 43 -62 45 -75 6 -7 -19 -16 -28 -24 -25 -10 4 -12 -1 -8 -16 3 -13 11 -19
19 -16 10 4 14 -5 14 -35 0 -37 -1 -39 -21 -29 -11 7 -27 9 -34 6 -9 -3 -15 3
-17 16 -2 12 -9 23 -16 24 -7 1 -8 0 -2 -3 5 -2 10 -9 10 -15 0 -6 -6 -6 -15
2 -12 10 -13 16 0 45 10 24 10 35 2 38 -6 2 -14 28 -17 58 -4 46 -8 54 -25 54
-11 0 -26 10 -33 23 -7 12 -17 20 -23 17 -15 -10 -39 59 -37 104 1 33 4 39 15
30 7 -6 13 -19 13 -28z m-1371 -50 c1 -32 2 -33 15 -16 12 17 14 15 21 -26 7
-39 9 -41 15 -19 7 25 8 24 25 -25 9 -28 23 -1 17 33 -5 24 -4 26 11 13 10 -7
17 -19 17 -26 0 -7 7 -15 15 -19 8 -3 15 -1 15 5 0 6 7 9 15 5 12 -4 14 0 9
21 -5 20 -4 24 6 18 7 -5 11 -4 8 1 -4 5 0 23 7 39 l12 30 10 -45 c8 -39 7
-46 -9 -54 -10 -5 -21 -20 -25 -34 -3 -14 -16 -44 -29 -66 -27 -47 -30 -68 -9
-60 8 3 14 9 13 12 -3 12 13 52 21 52 5 0 7 -12 4 -27 l-3 -28 11 25 c7 14 11
35 10 47 -1 11 3 24 10 29 9 5 10 0 5 -20 -4 -18 -3 -25 4 -21 5 3 10 -1 10
-9 0 -8 -4 -18 -10 -21 -5 -3 -10 -14 -9 -23 0 -13 3 -12 11 6 16 32 28 27 28
-13 0 -49 30 -37 31 14 l1 36 8 -40 c6 -28 4 -45 -5 -55 -15 -18 -55 -96 -55
-107 0 -16 49 53 50 70 0 9 5 17 11 17 5 0 8 -3 6 -7 -3 -5 1 -14 9 -21 12
-11 14 -10 14 3 0 9 5 13 11 9 6 -3 9 -16 7 -29 -3 -14 2 -26 13 -33 17 -11
17 -9 4 29 -12 34 -13 44 -1 60 7 10 16 16 19 12 4 -3 2 -12 -4 -20 -6 -7 -8
-14 -3 -14 5 -1 14 -2 19 -4 6 -1 15 -3 21 -3 6 -1 9 -15 6 -34 -4 -28 -3 -30
10 -18 7 8 14 24 15 35 1 29 11 67 19 74 4 3 5 -1 2 -9 -3 -8 -2 -24 3 -35 6
-17 8 -17 8 -2 1 12 9 17 28 17 21 0 24 3 15 12 -7 7 -12 23 -12 37 0 24 1 23
34 -14 26 -29 31 -41 23 -50 -7 -7 -13 -9 -15 -4 -6 16 -31 10 -42 -10 -5 -11
-7 -27 -4 -35 8 -22 34 -20 34 2 0 12 4 10 13 -8 9 -17 10 -27 3 -32 -8 -6 -8
-10 0 -15 6 -5 16 -18 23 -31 11 -22 11 -22 -8 -10 -11 7 -25 25 -30 40 -6 18
-17 28 -30 28 -11 0 -21 8 -24 18 -4 16 -4 16 -11 0 -5 -11 -2 -23 7 -32 41
-42 59 -86 53 -131 -7 -42 -29 -65 -42 -44 -3 6 -15 9 -25 6 -19 -5 -47 18
-35 30 3 3 6 2 6 -3 0 -5 18 -10 40 -11 28 -1 38 2 33 10 -3 6 -6 30 -4 54 l2
44 -38 -3 c-21 -2 -44 -7 -51 -12 -7 -4 -12 -2 -12 5 0 7 -3 10 -6 7 -3 -4 0
-17 7 -30 11 -22 11 -22 -7 -7 -29 24 -54 31 -54 14 0 -7 10 -15 22 -17 20 -3
39 -48 19 -48 -5 0 -16 10 -25 23 -13 19 -15 19 -9 2 6 -18 5 -18 -10 -6 -9 7
-15 16 -13 20 3 4 -11 5 -30 3 -18 -2 -32 -8 -29 -12 2 -4 16 -6 30 -5 16 2
25 -2 25 -11 0 -8 7 -14 15 -14 9 0 12 -6 8 -17 -4 -11 -8 -12 -11 -5 -2 7 -8
12 -14 12 -6 0 -8 -7 -5 -15 4 -8 2 -17 -4 -20 -13 -8 -2 -25 17 -25 8 0 14 8
14 18 0 9 4 13 8 7 10 -15 51 -14 45 1 -2 6 1 15 7 19 7 4 10 1 9 -6 -6 -30
12 -60 34 -57 13 2 21 -2 20 -9 -2 -7 3 -10 10 -7 8 3 13 -4 14 -18 0 -13 -1
-17 -4 -10 -3 6 -9 12 -14 12 -6 0 -7 -4 -4 -10 3 -5 1 -10 -5 -10 -6 0 -8 -4
-5 -10 3 -5 16 -10 28 -10 18 0 19 -2 7 -10 -12 -8 -13 -12 -2 -19 8 -4 13
-17 12 -27 -4 -32 -1 -35 20 -24 25 14 57 5 57 -15 0 -18 -23 -20 -30 -2 -3 6
-6 3 -6 -8 0 -22 44 -60 59 -50 26 16 -25 111 -66 121 -25 6 -25 7 -6 28 11
11 17 27 15 34 -3 6 0 12 6 12 6 0 11 -4 11 -10 0 -5 8 -10 19 -10 21 0 131
-47 131 -56 0 -3 -9 -2 -21 1 -18 6 -20 5 -10 -14 8 -14 8 -21 1 -21 -5 0 -10
-7 -10 -15 0 -8 7 -15 15 -15 19 0 20 -16 1 -23 -17 -7 -38 15 -34 33 2 7 -2
14 -7 16 -6 2 -11 -5 -12 -16 -1 -11 2 -20 6 -20 4 0 8 -7 8 -15 0 -8 -4 -12
-8 -10 -11 7 -27 -18 -24 -37 3 -19 -10 -24 -20 -8 -4 6 -11 8 -16 5 -5 -4 -9
-1 -9 4 0 6 -4 11 -10 11 -5 0 -6 -7 -3 -17 4 -11 3 -14 -5 -9 -7 4 -12 2 -12
-4 0 -6 -5 -8 -10 -5 -6 4 -8 10 -5 15 3 4 -2 10 -10 14 -19 7 -31 -14 -14
-25 11 -7 11 -9 1 -9 -7 0 -19 15 -27 33 -10 22 -14 26 -15 13 0 -20 0 -20
-14 -1 -8 11 -12 23 -10 27 3 5 0 8 -6 8 -16 0 -2 -41 19 -59 12 -10 13 -14 3
-18 -16 -6 3 -33 24 -33 7 0 16 -5 20 -12 5 -7 3 -8 -6 -3 -9 6 -11 4 -5 -5 6
-10 11 -9 22 5 7 11 13 23 13 28 0 5 7 4 15 -3 8 -7 12 -17 9 -22 -4 -6 -10
-5 -15 3 -7 12 -9 11 -10 -1 -1 -8 -1 -18 0 -22 0 -5 -5 -7 -12 -5 -7 1 -11
-7 -9 -23 2 -22 1 -23 -8 -7 -6 9 -15 17 -20 17 -12 0 -7 -25 9 -44 7 -9 11
-17 7 -17 -3 -1 -10 -3 -16 -4 -5 -1 -14 -3 -20 -4 -16 -2 -11 -31 5 -31 22 0
18 -16 -4 -17 -13 -1 -21 6 -23 20 -2 12 -9 21 -15 20 -6 -1 -9 6 -6 17 3 11
10 17 17 13 6 -3 4 2 -5 13 -27 33 -34 48 -18 42 8 -3 22 -2 31 1 16 6 16 9
-4 41 -19 32 -22 33 -28 15 -4 -11 -3 -26 2 -32 8 -9 6 -13 -6 -13 -21 0 -32
26 -18 43 12 16 24 81 16 90 -11 10 -36 -22 -27 -35 13 -22 12 -39 -3 -45 -8
-3 -14 -13 -15 -22 0 -13 -2 -13 -8 2 -6 17 -8 17 -25 -2 -19 -20 -18 -21 15
-35 19 -8 38 -12 44 -8 5 3 4 -2 -4 -11 -9 -11 -10 -17 -2 -17 22 0 11 -18
-14 -22 -26 -6 -32 1 -15 18 7 7 6 11 -4 11 -8 0 -13 -4 -10 -9 3 -4 0 -8 -6
-8 -13 0 12 -51 34 -69 14 -12 16 -9 16 18 0 19 4 30 10 26 6 -3 8 -17 6 -30
-4 -19 1 -26 26 -34 47 -17 68 -14 68 9 0 11 7 20 15 20 8 0 15 5 15 10 0 6 5
10 11 10 6 0 9 -6 6 -14 -4 -9 0 -12 12 -9 25 6 35 -33 13 -50 -10 -6 -23 -24
-31 -39 -13 -26 -15 -26 -38 -11 -20 13 -29 14 -44 5 -15 -10 -24 -9 -41 0
-31 18 -48 35 -41 41 3 3 -2 14 -12 23 -17 17 -17 16 -10 -17 9 -43 13 -49 31
-49 13 0 19 -12 15 -33 -1 -5 3 -6 8 -3 10 7 21 -16 21 -46 0 -14 -5 -18 -16
-14 -12 5 -15 2 -10 -9 3 -9 2 -13 -4 -10 -6 3 -10 13 -10 22 0 11 -6 14 -21
10 -18 -5 -20 -1 -19 31 4 73 1 82 -26 93 -20 7 -32 6 -50 -6 -13 -8 -24 -21
-24 -27 0 -7 7 -3 16 8 15 19 15 18 9 -3 -4 -14 0 -25 11 -31 14 -8 11 -10
-15 -14 -20 -3 -31 0 -31 8 0 6 -7 17 -15 24 -11 9 -15 9 -15 1 0 -8 -5 -9
-19 -1 -19 9 -19 9 -4 -21 9 -19 20 -28 29 -25 8 3 14 1 14 -4 0 -5 -11 -10
-24 -12 -22 -3 -23 -5 -11 -22 12 -16 17 -17 30 -6 13 11 14 10 9 -4 -4 -10
-1 -16 9 -16 11 0 13 6 9 22 -3 13 -1 19 5 15 6 -4 13 -15 16 -25 3 -15 -4
-23 -30 -33 -22 -9 -32 -18 -28 -27 4 -12 2 -12 -8 -4 -8 7 -16 11 -18 9 -2
-1 4 5 15 14 13 11 15 18 7 23 -6 4 -11 2 -11 -3 0 -13 -22 -10 -32 4 -4 6 -8
2 -8 -7 0 -21 -7 -23 -24 -5 -11 11 -17 59 -6 52 3 -2 6 12 7 30 3 32 1 33
-24 29 -15 -3 -30 -8 -33 -11 -3 -3 5 -3 18 0 15 3 22 1 22 -9 0 -12 -12 -18
-32 -16 -3 1 -9 -5 -12 -14 -4 -11 -2 -12 13 -4 18 9 19 7 16 -20 -2 -17 -7
-35 -10 -40 -4 -6 1 -7 11 -3 12 4 15 2 12 -8 -3 -9 -15 -13 -33 -11 -21 3
-26 0 -22 -11 4 -11 0 -14 -16 -11 -12 2 -17 2 -10 -2 7 -3 10 -11 7 -18 -6
-15 34 -15 44 0 4 5 18 9 32 9 22 0 25 -4 25 -34 0 -28 -4 -35 -23 -38 l-23
-3 22 32 23 32 -26 -19 c-15 -11 -28 -23 -28 -27 0 -5 -6 -8 -14 -8 -8 0 -16
-6 -19 -12 -3 -8 -9 -3 -15 12 -7 17 -11 19 -11 8 -1 -9 4 -20 9 -23 6 -3 10
-15 10 -27 0 -19 1 -20 25 -4 23 15 25 15 25 0 0 -9 -9 -18 -21 -21 -17 -5
-20 -11 -15 -34 3 -16 1 -31 -4 -34 -6 -3 -7 1 -4 9 4 11 0 16 -11 16 -9 0
-13 5 -10 10 4 6 -5 10 -20 10 -15 0 -24 4 -20 10 4 6 -7 28 -24 49 -17 21
-33 52 -36 69 l-5 31 40 -14 c34 -12 40 -12 40 0 0 20 -17 28 -62 28 -100 0
-219 -72 -217 -131 l1 -27 9 25 c5 14 22 31 39 37 28 11 29 10 25 -18 -4 -36
-1 -36 31 -2 22 24 27 25 61 15 20 -6 40 -9 45 -6 4 3 7 -7 7 -23 -1 -19 -3
-22 -6 -9 -4 15 -7 16 -14 5 -7 -11 -9 -10 -9 4 0 15 -3 16 -20 7 -15 -8 -20
-8 -18 1 2 6 -2 13 -8 16 -7 2 -10 -5 -6 -22 3 -20 1 -24 -11 -19 -10 3 -27
-4 -43 -19 -15 -14 -40 -28 -55 -31 -29 -6 -41 -26 -15 -26 17 0 29 -27 14
-32 -8 -3 -8 -10 1 -25 6 -12 11 -33 11 -47 0 -14 5 -28 10 -31 18 -11 10 -43
-12 -51 -38 -13 70 -17 117 -5 51 14 175 23 175 13 0 -27 -146 -54 -250 -47
-30 3 -65 5 -77 6 -25 1 -31 14 -10 22 9 3 13 19 12 44 -1 36 -3 38 -34 36
-19 -1 -36 -5 -40 -10 -10 -15 -36 -9 -39 9 -3 14 7 18 47 24 57 7 67 21 50
71 -7 22 -17 33 -30 33 -10 0 -19 5 -19 10 0 16 -26 12 -51 -8 -41 -34 -24
-147 31 -197 l21 -19 -31 -12 c-17 -7 -34 -23 -40 -36 -8 -21 -9 -21 -9 8 -1
17 -10 43 -21 57 -11 14 -20 32 -20 40 0 16 -26 41 -54 51 -27 9 -69 -20 -61
-44 3 -10 1 -21 -5 -25 -6 -3 -10 3 -10 15 0 12 -4 19 -9 15 -6 -3 -14 3 -20
12 -10 17 -10 17 -11 -1 0 -18 -1 -17 -19 3 -11 13 -25 20 -30 16 -6 -3 -11 1
-11 9 0 9 -5 16 -12 16 -6 0 -8 3 -5 6 4 4 12 2 19 -3 26 -20 45 -22 45 -5 0
10 -4 23 -10 30 -5 7 -8 15 -5 17 7 7 39 -6 34 -14 -2 -3 2 -12 10 -19 12 -11
14 -9 14 10 0 14 -14 35 -35 53 -19 17 -35 36 -35 44 0 17 -60 8 -75 -12 -5
-7 -21 -11 -35 -10 -14 1 -18 0 -7 -3 18 -6 24 -24 7 -24 -20 0 -9 -39 16 -59
14 -11 24 -23 23 -27 -1 -3 10 -22 25 -40 l27 -34 -30 0 c-18 0 -34 7 -41 18
-8 14 -9 12 -4 -10 11 -48 -15 -32 -42 26 -14 30 -34 62 -45 72 -25 22 -24 38
1 24 15 -8 20 -8 21 2 5 46 7 57 14 68 5 9 4 11 -3 6 -11 -7 -18 12 -24 64 -2
17 -10 26 -25 28 -21 3 -23 -1 -25 -40 -3 -90 2 -130 22 -155 11 -14 20 -36
20 -50 0 -13 7 -35 16 -48 16 -25 16 -25 -15 -25 -25 0 -29 -3 -24 -17 5 -15
3 -15 -14 2 -23 22 -40 110 -20 98 7 -3 4 3 -6 14 -9 11 -15 22 -12 25 3 3 -3
8 -15 11 -13 3 -20 0 -20 -9 0 -8 -4 -14 -9 -14 -12 0 -21 38 -9 42 5 2 6 11
3 21 -4 9 -11 14 -16 11 -5 -3 -7 -9 -4 -14 3 -4 -2 -13 -11 -21 -13 -10 -16
-9 -20 9 -7 25 -34 37 -46 20 -6 -10 -8 -10 -9 2 -2 41 -19 83 -19 48 0 -11
-6 -14 -19 -11 -10 3 -22 0 -25 -6 -4 -6 -2 -11 3 -11 6 0 11 -4 11 -9 0 -5
-9 -7 -20 -4 -23 6 -24 8 -10 33 8 15 6 20 -8 24 -29 8 -96 9 -115 1 -29 -12
-45 11 -21 30 10 8 15 15 9 16 -5 0 -20 2 -32 3 -13 2 -23 -2 -23 -7 0 -6 -2
-8 -5 -6 -2 3 0 18 4 35 8 24 9 25 10 7 1 -16 6 -21 16 -17 10 4 13 14 9 33
-4 20 -3 23 5 11 10 -13 11 -13 11 0 0 13 2 13 9 1 5 -8 7 -21 4 -30 -4 -14
-3 -14 9 -1 7 9 20 14 30 12 9 -2 20 2 24 9 4 8 3 9 -4 5 -7 -4 -12 -3 -12 3
0 16 -86 24 -121 12 -31 -11 -31 -10 -16 7 15 17 15 19 -4 35 -15 13 -24 15
-39 7 -15 -8 -21 -6 -30 9 -11 22 -10 43 4 53 12 8 -35 49 -49 44 -6 -2 -12 5
-12 16 -2 20 6 21 51 3 14 -6 17 -4 14 11 -2 10 -9 18 -15 17 -6 -1 -9 6 -6
17 4 13 0 20 -10 20 -20 0 -41 26 -27 35 6 3 7 12 3 18 -5 9 -3 9 8 1 8 -6 29
-11 48 -11 31 0 32 2 15 13 -48 33 -83 84 -50 71 10 -4 13 -1 9 9 -3 7 -9 14
-14 14 -4 0 -11 16 -15 35 -7 37 -8 38 -39 25 -19 -8 -19 -9 3 -9 23 -1 29
-22 16 -56 -5 -13 -8 -14 -15 -3 -5 8 -9 9 -9 2 0 -7 9 -22 20 -35 l20 -24 -6
30 c-4 17 -4 27 0 24 4 -4 8 -20 10 -37 3 -23 1 -29 -10 -25 -8 3 -14 0 -14
-6 0 -6 -11 -11 -25 -11 -15 0 -25 6 -25 14 0 8 -5 18 -12 22 -8 5 -9 2 -3
-12 4 -10 8 -35 10 -54 4 -57 5 -61 13 -57 4 3 8 -8 9 -24 3 -35 -9 -37 -29
-7 -13 19 -18 20 -30 10 -8 -6 -19 -8 -24 -4 -5 4 -1 -2 9 -14 9 -11 17 -25
17 -30 0 -5 -5 -2 -10 6 -8 12 -10 9 -10 -12 0 -16 4 -28 9 -28 5 0 12 -8 15
-17 3 -11 4 -8 3 7 -1 14 3 25 8 25 6 0 9 -3 7 -7 -1 -5 2 -8 6 -8 5 0 14 -12
20 -26 7 -14 16 -22 22 -19 5 3 20 0 32 -7 13 -7 26 -11 31 -10 9 2 9 -2 1
-22 -5 -13 -10 -13 -27 -4 -12 6 -26 16 -30 22 -4 6 -5 -7 -2 -29 5 -30 4 -36
-4 -25 -6 8 -11 23 -11 33 0 9 -3 16 -7 15 -5 -1 -18 3 -30 10 -34 19 -53 6
-47 -31 10 -56 12 -59 33 -48 16 9 18 8 14 -8 -3 -11 2 -21 11 -24 9 -4 16
-17 16 -29 0 -19 2 -20 10 -8 5 8 10 10 10 4 0 -6 -3 -14 -7 -17 -8 -9 -34 13
-28 23 3 5 -4 6 -15 3 -12 -3 -20 0 -20 6 0 7 -5 9 -11 6 -7 -5 -2 -16 13 -32
l23 -25 -22 6 c-22 7 -23 5 -23 -53 0 -61 10 -76 29 -43 6 9 11 12 11 6 0 -5
-5 -15 -12 -22 -9 -9 -8 -13 4 -17 9 -4 14 -14 11 -24 -2 -9 2 -23 11 -30 12
-11 23 -9 58 11 24 12 45 26 46 31 2 4 8 7 12 7 5 0 -8 -26 -29 -57 -47 -71
-50 -81 -40 -116 4 -16 4 -25 -1 -22 -5 3 -28 1 -50 -5 -33 -9 -44 -8 -65 6
-32 21 -32 34 4 68 23 22 28 33 22 50 -5 12 -4 28 2 37 17 28 -15 66 -60 71
-43 6 -60 -4 -75 -42 -10 -25 -10 -25 -18 -3 -10 24 -39 43 -68 43 -29 0 -72
-38 -72 -65 0 -26 -40 -43 -52 -21 -19 34 -45 57 -65 59 -27 2 -28 4 -9 23 10
9 25 12 46 8 32 -7 58 10 73 49 3 9 13 17 22 17 8 0 15 7 15 15 0 14 34 55 45
55 3 0 13 0 23 0 19 0 24 34 9 58 -5 6 -4 12 1 12 5 0 10 11 10 25 0 15 -6 25
-14 25 -8 0 -14 7 -14 16 0 13 3 14 14 5 11 -9 15 -8 20 4 3 9 2 13 -4 10 -17
-11 -32 5 -20 20 12 15 4 39 -10 30 -4 -3 -11 2 -14 11 -10 25 -7 34 9 34 13
0 14 4 5 21 -7 11 -9 23 -7 26 3 2 11 -5 18 -18 11 -22 12 -22 25 -4 12 16 11
20 -4 31 -12 10 -13 13 -3 14 7 0 11 6 8 13 -6 16 25 38 41 28 6 -4 9 -19 7
-34 -4 -21 -1 -27 12 -27 14 0 19 9 21 36 1 20 -3 42 -8 50 -8 9 -7 12 5 10 9
-1 20 -8 25 -15 20 -33 22 29 4 122 -1 10 1 15 7 12 5 -4 9 -2 9 4 0 5 -8 14
-17 20 -10 5 -15 13 -11 17 4 3 23 -7 42 -24 19 -16 32 -33 29 -36 -4 -3 1 -6
10 -6 16 0 22 -12 17 -35 -1 -5 2 -7 6 -3 4 4 13 0 21 -10 13 -15 13 -15 4 4
-5 11 -7 31 -4 44 5 18 3 21 -8 15 -11 -6 -12 -5 -1 6 20 21 15 55 -8 56 -11
1 -18 -2 -15 -7 3 -4 -1 -10 -9 -13 -9 -4 -12 0 -9 13 6 22 69 26 77 4 3 -7
12 -11 20 -8 9 4 20 -5 31 -25 8 -17 19 -31 24 -31 15 0 9 49 -7 62 -13 12
-14 10 -3 -12 9 -19 4 -16 -22 13 -19 20 -40 37 -48 37 -8 0 -20 9 -27 20 -10
16 -10 20 1 20 7 0 18 -5 25 -10 6 -6 10 -7 7 -3 -3 3 4 13 15 20 14 10 19 21
15 34 -5 14 -3 17 9 13 9 -3 16 -17 16 -29 0 -13 5 -27 11 -30 18 -12 18 -1
-1 37 -10 21 -17 46 -16 55 5 31 25 25 43 -12 12 -26 22 -35 35 -32 10 3 18 1
18 -4 0 -4 7 -6 15 -3 11 5 15 -1 15 -17 0 -19 -2 -21 -10 -9 -9 13 -10 13
-10 0 0 -17 19 -40 32 -40 4 0 8 10 9 23 0 21 1 21 9 2 5 -11 9 -14 9 -7 1 8
6 10 14 6 8 -5 8 -2 -2 9 -11 14 -11 17 0 17 10 1 8 4 -3 11 -10 5 -18 16 -18
23 0 8 -10 20 -22 29 -18 12 -20 18 -11 27 6 7 9 19 6 27 -5 13 -3 13 16 2 11
-8 21 -17 21 -22 0 -4 -4 -6 -9 -3 -5 4 -7 -4 -3 -16 3 -12 7 -17 10 -10 2 6
8 12 13 12 6 0 8 -4 4 -9 -3 -5 0 -13 6 -17 7 -4 9 -3 5 4 -3 6 -2 13 4 17 6
3 10 -4 10 -17 0 -18 2 -20 10 -8 5 8 12 11 16 7 4 -4 -1 -17 -12 -30 -11 -12
-18 -32 -16 -44 4 -25 17 -30 26 -10 3 6 3 0 0 -15 -4 -17 -2 -28 5 -28 6 0
11 5 11 11 0 6 5 7 13 2 35 -22 40 -8 22 54 -5 17 7 24 21 12 9 -8 11 -5 7 10
-3 12 -9 19 -13 16 -5 -3 -6 4 -3 15 5 18 8 19 22 8 9 -7 7 -3 -6 9 -28 27
-29 37 -4 30 14 -3 18 2 19 25 1 45 12 47 12 2 1 -36 2 -37 15 -21 15 20 11
42 -12 69 -8 9 -13 25 -10 35 4 15 5 14 6 -4 1 -24 10 -32 41 -38 21 -4 28 11
9 17 -6 2 -9 15 -7 28 4 25 4 25 17 -5 19 -45 24 -85 11 -85 -7 0 -10 7 -6 15
3 9 0 15 -9 15 -20 0 -19 -8 5 -55 19 -37 20 -38 20 -12 0 16 4 26 10 22 18
-11 11 -88 -10 -120 -11 -16 -30 -45 -41 -63 l-22 -33 -18 28 c-24 36 -25 23
-1 -17 14 -23 21 -27 30 -18 7 7 12 8 12 3 0 -6 5 -3 10 5 8 12 10 11 10 -5 0
-12 -5 -26 -11 -32 -17 -17 -1 -37 17 -22 11 9 14 7 14 -15 0 -14 5 -26 10
-26 6 0 10 -7 10 -15 0 -8 4 -15 9 -15 4 0 6 12 3 28 -5 24 -4 26 11 13 22
-18 22 0 1 42 -9 17 -18 43 -19 57 -1 14 -6 33 -10 43 -11 25 1 32 21 13 22
-23 32 -11 11 12 -10 10 -17 27 -17 38 0 16 2 17 10 4 7 -11 10 -3 10 31 0 25
-4 49 -9 55 -11 11 -51 125 -51 145 0 8 9 1 21 -16 l20 -30 -3 35 c-2 26 1 34
12 32 9 -2 6 6 -9 22 -14 14 -21 26 -17 26 4 0 1 10 -6 23 -7 12 -13 29 -13
37 0 20 -27 20 -42 0 -8 -9 -12 -11 -13 -3 0 6 -9 14 -19 18 -23 7 -34 42 -15
49 7 3 23 -7 34 -22 12 -15 18 -20 14 -12 -7 13 -5 13 9 1 15 -12 17 -11 17
10 1 22 3 20 20 -11 11 -19 19 -29 20 -22 0 6 7 12 16 12 11 0 14 5 9 18 -4 9
-10 26 -13 37 -5 17 -3 18 10 7 25 -20 29 -64 7 -69 -14 -4 -17 -11 -12 -37 7
-39 12 -44 23 -26 8 13 10 13 10 1 0 -8 3 -11 6 -8 4 4 2 12 -4 19 -7 9 -7 18
2 30 12 16 15 15 34 -12 24 -31 29 -56 10 -44 -8 5 -9 -2 -5 -26 4 -18 7 -39
7 -47 0 -8 5 -11 12 -7 7 5 8 3 3 -6 -6 -9 -4 -12 7 -8 8 4 21 2 29 -3 11 -7
12 -12 2 -27 -7 -12 -8 -24 -2 -33 5 -8 9 -40 9 -71 0 -31 5 -60 10 -63 6 -4
10 -3 9 2 -1 4 -1 26 0 47 1 37 2 39 16 20 14 -18 16 -18 29 -1 12 15 15 16
26 2 11 -13 10 -14 -2 -10 -8 3 -15 0 -16 -7 0 -7 -4 -33 -7 -58 -5 -33 -4
-41 4 -30 6 8 11 23 11 33 0 10 5 15 10 12 6 -3 10 -28 10 -56 0 -54 20 -69
21 -16 1 31 1 30 20 -18 13 -36 17 -41 13 -17 -7 37 11 44 27 10 9 -21 9 -21
4 4 -3 15 0 30 7 34 6 4 8 3 4 -4 -3 -6 -2 -13 3 -16 5 -4 8 0 7 6 -3 25 -17
37 -34 32 -13 -5 -14 -4 -3 4 11 8 10 12 -6 23 -24 18 -76 116 -70 132 3 7 9
1 15 -13 l11 -25 2 30 c1 17 0 34 -1 40 -5 24 17 -11 33 -53 l17 -47 -5 55
c-3 36 -1 48 4 35 5 -12 17 -27 27 -35 17 -14 18 -13 6 2 -7 9 -12 33 -11 55
1 21 -2 50 -6 65 -6 24 -4 26 14 21 12 -3 21 -10 20 -17 -3 -29 2 -72 11 -86
9 -13 11 -13 20 0 8 12 10 9 10 -12 0 -46 20 -43 21 4 l1 43 12 -35 c12 -33
13 -33 19 -11 5 21 8 22 22 11 8 -7 13 -15 10 -19 -3 -3 -11 1 -16 9 -9 13
-10 13 -6 0 2 -8 11 -15 19 -15 8 0 22 -6 30 -12 11 -10 14 -8 15 8 1 11 -2
17 -8 14 -5 -4 -13 5 -18 18 -6 14 -15 28 -20 32 -6 3 -16 16 -23 28 -10 20
-10 21 5 9 14 -12 15 -11 8 16 -5 16 -14 39 -20 50 -9 17 -7 28 10 56 26 44
30 45 18 4 -5 -18 -9 -42 -8 -53 0 -16 4 -14 14 10 l14 30 1 -42 c0 -32 5 -45
20 -53 11 -6 20 -16 19 -23 -1 -7 0 -25 1 -42 l2 -30 13 29 13 30 7 -33 c5
-24 10 -30 16 -20 4 7 4 18 0 24 -5 5 -11 24 -14 40 -4 17 -4 24 0 16 4 -9 7
-10 12 -2 5 8 16 5 37 -10 l29 -21 -28 26 c-25 23 -27 30 -19 54 l10 27 2 -30
1 -30 13 30 c15 33 15 33 40 -55 21 -74 40 -99 32 -45 l-5 40 20 -35 c11 -19
17 -26 14 -15 -11 33 -10 37 3 42 7 3 10 -1 6 -10 -3 -8 -2 -17 3 -20 4 -3 9
8 10 24 2 21 -4 32 -20 41 -12 7 -25 12 -28 11 -7 -2 -9 27 -3 46 4 11 8 10
19 -5 13 -18 14 -17 11 9 -1 15 -11 37 -22 50 -10 12 -25 33 -33 47 -13 23
-13 24 2 11 10 -7 17 -10 17 -7 0 4 9 2 20 -4 11 -6 20 -8 20 -4 0 3 -9 17
-20 31 -25 32 -27 54 -2 25 22 -25 42 -13 42 25 0 34 26 40 50 12 29 -35 24
-11 -6 28 -14 18 -21 33 -15 33 5 0 13 -4 16 -10 9 -15 25 -12 25 6 0 30 20 2
21 -29 0 -31 1 -31 10 -8 5 13 7 32 4 42 -3 9 -1 20 5 24 6 3 10 -3 10 -14 0
-12 5 -21 10 -21 6 0 10 -8 10 -17 1 -17 2 -17 15 1 7 10 18 15 24 11 6 -3 11
-1 11 4 0 6 -4 11 -8 11 -5 0 -17 18 -28 39 -10 22 -22 37 -25 35 -4 -2 -18 7
-32 20 -14 13 -27 22 -29 20 -2 -1 -4 9 -5 24 0 17 1 20 4 8 4 -15 7 -16 13
-5 7 10 12 6 21 -14 13 -29 25 -34 31 -15 2 6 21 -5 42 -27 21 -21 33 -29 27
-17 -12 23 -16 54 -3 36 5 -9 10 -9 19 1 13 14 0 41 -16 31 -7 -5 -9 -1 -5 9
6 14 9 14 28 -4 18 -16 23 -17 33 -6 8 9 9 16 3 20 -7 4 -7 12 -1 23 5 9 7 41
5 72 -3 40 -1 48 5 30 5 -14 9 -40 10 -59z m-436 -357 c-5 -28 -9 -33 -24 -29
-14 5 -17 2 -13 -9 3 -8 12 -12 20 -9 8 3 14 -1 14 -11 0 -9 -4 -16 -9 -16 -6
0 -9 -9 -8 -21 1 -20 2 -20 19 3 33 43 39 48 48 43 14 -9 1 -32 -21 -38 -11
-3 -24 -19 -30 -36 -14 -39 -29 -32 -59 31 -24 50 -53 88 -66 88 -4 0 -13 8
-21 18 -13 15 -13 15 -7 -8 8 -27 8 -32 6 -69 -3 -34 -22 -13 -24 25 -2 45 10
116 22 128 5 5 11 7 11 3 1 -4 3 -11 4 -17 1 -5 3 -14 4 -18 1 -10 31 -9 48 1
7 4 14 -1 18 -12 4 -12 12 -18 20 -14 11 4 12 10 5 23 -8 16 -8 38 0 70 0 3
12 -17 25 -43 17 -34 22 -58 18 -83z m-1788 -705 c11 -12 15 -19 9 -16 -7 4
-14 0 -17 -8 -4 -8 1 -16 11 -19 15 -5 17 -23 14 -173 -3 -143 -5 -168 -20
-179 -16 -12 -16 -13 1 -19 22 -9 22 -20 -3 -53 -12 -16 -22 -41 -23 -58 -2
-26 -6 -29 -40 -32 -26 -2 -46 3 -67 18 -27 19 -32 20 -45 6 -8 -8 -15 -18
-15 -22 0 -5 5 -3 12 4 18 18 38 14 38 -8 0 -18 -5 -20 -39 -14 -28 4 -46 1
-65 -11 -14 -10 -26 -16 -27 -14 -8 41 -7 54 3 60 9 6 7 15 -9 37 -13 18 -18
34 -13 42 5 8 12 40 15 72 7 60 11 64 59 59 11 -1 23 4 27 11 6 9 11 9 23 -1
12 -10 16 -33 17 -90 0 -52 3 -70 9 -56 5 11 9 68 9 127 1 88 4 106 15 102 9
-3 17 3 21 15 3 12 11 19 16 16 5 -4 9 -1 9 4 0 6 -6 11 -13 11 -8 0 -22 10
-33 21 -19 22 -19 22 1 11 18 -9 21 -7 23 14 1 13 -3 24 -9 24 -7 0 -9 10 -7
25 3 15 1 22 -5 18 -6 -3 -7 -1 -3 6 4 6 2 18 -4 26 -10 12 -9 15 5 15 10 0
23 -6 29 -13 6 -7 10 -10 8 -8 -1 3 15 13 35 22 l38 18 -30 1 c-37 0 -60 14
-50 30 5 8 12 7 25 -5 18 -16 18 -16 13 5 -5 19 -3 21 13 12 11 -6 28 -20 39
-33z m4523 -199 c9 -5 39 -19 65 -30 26 -11 45 -25 42 -31 -4 -6 4 -7 22 -3
23 5 26 4 16 -7 -11 -10 -8 -19 15 -43 18 -19 21 -27 10 -23 -12 4 -15 2 -11
-8 3 -8 9 -13 13 -10 4 3 15 -6 24 -20 22 -34 20 -42 -5 -14 -14 16 -19 19
-15 7 3 -9 0 -19 -7 -22 -7 -2 -5 -5 4 -5 18 -1 33 -27 23 -42 -3 -5 -1 -9 4
-9 6 0 13 -16 16 -35 4 -19 13 -47 21 -62 8 -15 15 -34 15 -41 0 -6 5 -11 11
-10 14 4 36 -29 26 -39 -5 -4 -12 -2 -16 6 -11 16 -89 6 -150 -20 -40 -18 -71
-24 -71 -15 0 9 54 102 65 111 17 14 31 60 15 50 -9 -6 -11 7 -8 48 1 30 0 54
-3 52 -3 -2 -6 9 -6 25 0 17 -3 33 -7 37 -6 7 -57 -44 -95 -95 l-17 -23 -44
25 c-47 27 -80 33 -80 15 0 -6 -9 -8 -20 -4 -12 4 -27 2 -34 -4 -11 -9 -15 -5
-19 21 -4 27 2 40 29 70 18 20 42 55 54 78 11 22 23 40 26 40 3 0 2 -4 -1 -10
-10 -16 7 -11 48 14 25 15 34 26 25 29 -7 3 -10 6 -5 6 4 1 15 -3 25 -9z
m-262 -244 l1 -53 -59 -33 c-33 -17 -57 -34 -55 -37 3 -2 39 14 81 37 42 23
82 40 88 38 7 -3 -2 -11 -20 -19 -35 -15 -41 -26 -16 -31 9 -2 -37 -25 -102
-52 -122 -50 -156 -69 -113 -60 l24 5 -25 -11 c-13 -6 -35 -8 -47 -5 -20 5
-23 2 -23 -25 0 -18 6 -33 15 -36 8 -4 15 -10 15 -14 0 -13 -33 -21 -43 -11
-7 7 -15 5 -23 -7 -10 -13 -15 -14 -25 -5 -10 10 -6 15 19 24 27 9 32 15 26
33 -10 35 -19 38 -75 24 -46 -12 -57 -19 -71 -48 -10 -19 -18 -30 -18 -23 0 7
-6 10 -14 7 -8 -3 -12 -13 -9 -22 3 -14 -4 -17 -39 -19 -40 -1 -41 -1 -15 9
15 5 27 17 27 26 0 10 9 32 21 51 l20 33 -28 -7 c-27 -6 -33 -12 -54 -47 -5
-10 -14 -18 -20 -18 -6 0 -7 5 -4 10 4 6 -13 10 -44 10 -28 0 -51 5 -51 10 0
6 6 10 13 10 6 0 25 7 40 15 15 8 45 17 65 20 113 18 228 55 244 79 3 5 15 10
25 11 88 8 184 68 242 153 12 17 23 32 24 32 1 0 2 -24 3 -54z m-1962 -70 c-3
-8 3 -17 14 -20 24 -8 62 -95 62 -141 0 -24 -7 -37 -25 -49 -32 -21 -52 -22
-35 -1 12 14 11 31 -7 105 -7 28 -14 36 -36 38 -20 3 -26 0 -21 -12 5 -14 -22
-36 -45 -36 -14 0 -14 46 0 71 8 16 59 46 96 58 1 1 0 -5 -3 -13z m-1212 -167
c20 -39 22 -53 8 -44 -13 8 -13 -79 1 -128 13 -49 5 -74 -32 -92 -16 -9 -28
-12 -27 -8 0 4 -4 21 -11 37 -6 16 -9 31 -7 33 3 3 -7 16 -21 29 -20 18 -22
24 -9 24 19 0 20 4 6 31 -13 24 -61 49 -95 49 -25 0 -25 0 -10 30 9 17 20 30
25 30 6 0 34 16 62 35 46 32 53 34 72 22 12 -8 29 -29 38 -48z m3793 -160 c6
-6 -1 -8 -20 -5 -17 2 -24 1 -17 -1 7 -3 10 -9 7 -14 -4 -5 8 -9 25 -9 18 0
29 4 25 10 -10 16 11 12 25 -5 10 -12 10 -15 -1 -16 -110 -5 -178 -14 -245
-35 -44 -13 -91 -24 -105 -23 -15 0 -18 3 -9 6 20 8 74 53 63 53 -18 0 61 41
95 50 43 11 142 4 157 -11z m-1238 -17 c10 -6 5 -35 -18 -121 -17 -61 -29
-117 -26 -124 2 -6 28 35 58 91 31 56 59 99 62 95 4 -3 -16 -49 -44 -100 -28
-52 -48 -101 -45 -109 3 -9 1 -12 -4 -9 -6 3 -13 -1 -16 -9 -10 -25 -26 -19
-18 7 6 21 6 21 -13 5 -11 -10 -25 -18 -32 -18 -7 0 -10 -4 -7 -9 3 -5 0 -11
-8 -14 -7 -3 -16 -19 -19 -36 -5 -24 -31 -73 -64 -120 -2 -2 -5 -2 -8 0 -2 3
9 34 26 70 52 110 92 244 84 285 -6 35 -7 36 -43 29 -20 -3 -45 -8 -54 -11
-10 -3 -18 0 -18 6 0 6 6 12 13 14 6 2 31 9 54 15 34 9 42 16 46 39 2 16 5 6
6 -23 1 -48 20 -104 21 -63 0 34 32 98 49 98 14 0 14 2 1 10 -8 5 -10 10 -5
10 6 0 16 -4 22 -8z m603 -8 c14 -3 39 -16 54 -31 l28 -26 -61 -22 c-68 -25
-119 -60 -151 -105 -12 -16 -29 -30 -38 -30 -15 0 -15 -2 -2 -10 12 -8 12 -10
1 -10 -8 0 -11 -3 -8 -6 3 -4 -5 -26 -18 -49 -29 -49 -31 -72 -9 -96 11 -12
12 -17 2 -16 -7 1 -67 -16 -133 -36 -66 -21 -131 -42 -145 -46 -33 -10 -200
-15 -200 -6 0 4 32 51 71 104 73 98 83 116 93 163 5 21 30 43 107 93 55 37
123 75 152 86 29 11 39 17 22 13 -50 -9 -16 13 45 30 51 13 118 14 190 0z
m-3145 -151 c4 -21 10 -48 15 -60 6 -15 6 -23 0 -23 -6 0 -10 5 -10 10 0 6
-17 9 -37 9 -35 -2 -35 -2 -8 -6 28 -4 44 -18 45 -35 0 -13 -33 -9 -49 6 -19
17 -91 32 -91 20 0 -5 21 -16 48 -24 l47 -15 -2 -50 c-1 -27 -6 -51 -11 -53
-5 -1 -7 -15 -4 -30 5 -23 3 -25 -10 -14 -13 10 -17 10 -22 -3 -3 -9 -2 -13 4
-10 18 11 22 -22 7 -56 -8 -19 -14 -60 -13 -91 1 -31 -2 -54 -6 -51 -11 6 -10
-3 2 -27 6 -11 15 -29 20 -40 6 -12 8 -25 5 -30 -3 -5 -6 -33 -6 -62 -1 -29
-5 -55 -10 -58 -4 -3 -4 -23 1 -45 7 -31 6 -43 -7 -57 -15 -17 -15 -18 0 -18
23 0 21 -13 -3 -28 -11 -7 -20 -20 -20 -30 0 -13 -8 -17 -38 -16 -43 0 -62 -5
-62 -17 0 -4 7 -6 15 -3 11 5 13 2 9 -10 -3 -9 -14 -16 -24 -16 -15 0 -18 11
-19 88 -1 48 -6 170 -12 272 -23 413 -23 402 -3 417 16 12 16 13 1 13 -10 0
-17 8 -17 20 0 16 7 20 38 20 20 1 48 7 61 14 l23 13 -28 6 c-16 3 -38 8 -49
12 -15 5 -13 2 5 -10 25 -16 24 -16 -20 -10 -125 17 -143 18 -136 6 4 -7 0
-11 -11 -11 -13 0 -9 -6 14 -21 32 -21 63 -81 63 -124 0 -14 5 -25 10 -25 19
0 10 -39 -10 -45 -26 -8 -160 15 -160 27 0 5 -11 -3 -24 -19 -14 -16 -44 -35
-68 -43 -24 -7 -47 -19 -53 -25 -5 -6 -23 -15 -38 -19 -25 -6 -35 -1 -78 42
-27 27 -49 55 -49 63 0 8 19 25 41 38 28 15 38 26 29 31 -9 6 -9 13 -1 28 6
11 11 29 11 39 0 28 49 51 131 63 41 6 102 15 136 21 33 5 69 6 80 3 14 -5 13
-2 -4 10 -29 22 -31 50 -3 43 11 -3 23 -1 26 4 7 12 54 12 54 0 0 -17 95 -17
163 0 38 10 71 20 75 23 15 16 32 2 37 -31z m3231 2 c8 -43 21 -51 107 -60 37
-3 67 -10 67 -14 0 -4 -9 -16 -19 -25 -11 -10 -24 -30 -30 -45 -11 -26 -17
-27 -123 -40 -61 -7 -135 -19 -165 -27 -30 -8 -63 -14 -75 -14 -18 0 -19 2 -7
17 12 14 12 17 0 21 -10 3 -8 10 10 23 16 13 19 19 9 19 -10 0 -7 7 10 20 14
11 20 20 14 20 -14 0 -11 43 4 48 7 2 10 8 7 12 -5 8 64 61 95 73 8 3 32 6 52
6 35 1 38 -1 44 -34z m-4040 -25 c14 0 22 -4 19 -10 -3 -5 -1 -10 6 -10 10 0
10 -3 1 -12 -7 -7 -12 -21 -12 -32 1 -16 5 -13 20 14 22 40 26 25 7 -23 -8
-18 -12 -38 -9 -46 3 -9 0 -11 -8 -6 -10 6 -12 4 -7 -9 4 -9 3 -15 -2 -11 -5
3 -14 -10 -21 -29 -6 -19 -18 -40 -26 -47 -13 -10 -13 -8 -4 15 5 15 15 37 21
49 l12 22 -25 -22 c-13 -13 -28 -23 -33 -23 -5 0 -18 -9 -30 -20 -16 -15 -28
-18 -43 -13 -20 8 -20 9 14 98 38 96 60 129 82 120 7 -3 25 -5 38 -5z m4339
-65 l20 -26 28 27 c25 23 31 25 43 12 13 -13 13 -19 -6 -51 -23 -39 -35 -46
-43 -24 -3 7 -9 0 -16 -15 -6 -16 -16 -28 -22 -28 -6 0 -9 -6 -6 -14 3 -7 1
-18 -5 -24 -7 -7 -3 -12 11 -17 12 -3 21 -11 21 -16 0 -6 -6 -7 -12 -4 -7 4
-5 0 5 -8 18 -15 18 -16 -3 -27 -26 -14 -112 -9 -117 7 -3 7 3 9 16 6 12 -3
21 -1 21 6 0 6 -11 11 -25 11 -14 0 -25 3 -26 8 0 4 -2 17 -3 29 -1 12 3 32
10 45 8 13 13 17 14 9 0 -23 31 -51 54 -50 19 0 19 1 3 8 -10 4 -18 10 -18 14
1 4 -2 7 -5 6 -14 -2 -24 28 -24 69 0 33 4 42 18 43 23 2 24 2 47 -7 20 -7 20
-7 1 14 -11 12 -15 22 -10 22 4 0 17 -11 29 -25z m-1086 -168 c-23 -45 -45
-83 -50 -85 -5 -2 -9 -14 -9 -27 0 -13 -3 -25 -7 -27 -5 -2 -46 -78 -93 -170
-54 -107 -95 -175 -112 -188 -16 -11 -28 -28 -29 -38 0 -9 -3 -12 -5 -5 -3 6
11 41 30 76 19 36 32 68 29 71 -4 3 1 12 9 19 32 24 117 200 116 240 0 27 -3
35 -11 28 -7 -5 -61 -12 -122 -17 -73 -5 -102 -10 -85 -15 19 -5 13 -7 -25 -7
-43 -1 -53 3 -73 28 -21 27 -22 30 -5 38 29 15 102 30 176 38 57 6 70 11 77
28 7 17 9 18 9 3 1 -9 13 -23 29 -29 15 -7 36 -22 48 -34 12 -12 26 -19 31
-15 6 3 30 45 53 93 23 49 46 85 51 82 5 -3 -10 -42 -32 -87z m-2221 66 c-6
-7 -7 -13 -2 -13 5 0 2 -4 -6 -10 -9 -6 -17 -5 -22 3 -5 8 -8 5 -8 -8 0 -17
-2 -18 -11 -5 -9 13 -10 13 -6 -2 3 -9 3 -19 -1 -21 -9 -5 12 1 36 10 28 11
-17 -36 -52 -54 -28 -14 -141 -22 -152 -10 -3 3 2 17 11 31 31 48 132 97 192
93 24 -2 29 -5 21 -14z m-1188 -78 c0 -4 -7 -20 -16 -38 -13 -23 -14 -32 -4
-35 6 -2 27 -17 45 -33 l33 -29 -19 -40 c-22 -45 -29 -50 -23 -17 2 12 -4 5
-14 -15 -9 -21 -20 -38 -23 -38 -7 0 -39 68 -39 84 0 14 -40 52 -90 89 -25 17
-24 18 41 12 l67 -6 12 35 c6 20 16 36 21 36 5 0 9 -2 9 -5z m4447 -119 c-1
-4 16 -14 38 -20 l40 -12 -37 -7 c-27 -6 -36 -12 -31 -23 5 -13 7 -13 23 1 26
23 32 18 15 -15 -21 -40 -20 -57 3 -38 9 9 26 18 37 20 18 5 18 6 -5 16 -28
12 -6 15 24 3 17 -6 15 -10 -14 -34 -17 -15 -37 -27 -43 -27 -7 0 -18 -15 -26
-32 -7 -18 -24 -42 -37 -53 -21 -18 -22 -24 -14 -60 12 -51 12 -85 1 -85 -4 0
-11 17 -15 38 -3 20 -11 64 -17 97 -20 116 -21 149 -4 161 14 10 14 12 0 18
-18 7 -20 32 -2 39 9 4 9 8 -2 15 -9 7 -1 9 27 8 22 0 40 -5 39 -10z m-4135
-276 c11 0 22 -8 25 -19 5 -19 63 -36 63 -18 0 5 8 6 18 2 9 -4 30 -9 46 -11
41 -6 42 -10 7 -29 -17 -8 -31 -22 -31 -30 0 -11 -13 -15 -52 -15 -29 -1 -64
-7 -78 -15 -30 -17 -80 -19 -80 -3 0 22 33 48 64 49 21 1 25 3 11 6 -11 3 -24
10 -30 15 -7 7 -7 9 0 6 6 -3 19 -2 30 3 17 6 15 8 -10 9 l-30 1 30 15 c29 14
30 14 3 9 -31 -6 -45 9 -26 29 7 8 15 10 16 5 2 -5 13 -9 24 -9z m3538 -5 c5
-14 9 -31 7 -36 -2 -13 61 -37 111 -44 34 -4 72 -29 72 -48 0 -5 -7 -15 -17
-22 -21 -15 -10 -48 14 -43 13 3 17 12 16 33 -2 29 -1 29 13 10 23 -31 13 -48
-41 -62 -58 -15 -133 -17 -100 -3 43 18 -32 10 -96 -11 -65 -21 -209 -38 -209
-24 0 4 9 19 19 34 11 15 19 33 19 41 -1 8 0 34 0 58 2 40 3 41 22 30 13 -8
19 -20 16 -31 -4 -17 -3 -17 12 -5 9 8 28 15 41 16 28 1 66 32 40 32 -8 0 -20
-5 -27 -12 -9 -9 -15 -9 -24 0 -9 9 -1 23 37 62 27 28 53 50 57 50 5 0 13 -11
18 -25z m-4325 -315 c-3 -5 -1 -10 4 -10 6 0 11 5 11 10 0 16 66 11 80 -6 12
-13 5 -15 -66 -14 -43 0 -155 -4 -249 -9 -93 -5 -235 -12 -313 -14 -130 -5
-142 -4 -122 10 17 12 79 17 303 24 250 8 321 12 350 17 5 1 5 -2 2 -8z m1566
-86 c17 -8 29 -17 27 -19 -2 -3 -65 -1 -139 4 -75 5 -138 5 -143 0 -9 -8 13
-14 37 -10 4 0 7 -3 7 -7 0 -5 -46 -12 -102 -15 -57 -3 -179 -11 -273 -18
-134 -9 -203 -9 -325 1 -85 7 -164 16 -174 20 -26 9 212 19 504 22 153 1 209
4 160 8 l-75 6 70 3 c96 5 345 17 373 19 13 1 37 -5 53 -14z m1484 -35 c-130
-14 -364 -27 -388 -22 -18 4 -19 3 -7 -6 11 -7 -31 -10 -148 -9 -115 2 -165
-1 -170 -9 -7 -11 -115 -23 -457 -54 -60 -5 -132 -7 -160 -5 -27 3 -88 8 -135
11 -162 9 -271 18 -268 20 2 2 64 8 138 14 74 6 187 16 250 21 154 14 391 22
640 22 151 0 185 2 130 8 l-75 7 80 -3 c44 -1 85 -2 90 -2 6 0 93 2 194 4 101
1 185 5 187 7 3 2 44 4 92 5 l87 0 -80 -9z m-642 -125 c21 -6 74 -5 152 3 166
16 228 16 219 1 -6 -10 -4 -10 7 -2 8 6 41 16 74 22 98 18 394 45 436 39 21
-3 39 -1 39 4 0 5 7 9 15 9 8 0 12 -6 9 -14 -6 -15 44 -27 122 -29 22 0 42 -5
46 -11 5 -7 8 -6 8 3 0 10 4 11 13 3 6 -6 28 -12 47 -15 29 -3 26 -4 -15 -5
-46 -2 -143 -15 -207 -28 -21 -4 -28 -2 -28 10 0 13 13 16 72 16 88 0 86 6 -5
13 -43 3 -75 11 -86 21 -10 9 -21 16 -24 16 -7 0 0 -57 9 -71 5 -9 -15 -13
-186 -34 -156 -19 -230 -20 -231 -2 0 8 -2 8 -5 1 -3 -6 -15 -9 -27 -7 -12 2
-86 7 -164 11 -111 5 -144 4 -148 -5 -6 -19 -32 -16 -44 4 -8 15 -11 15 -26 3
-13 -11 -18 -11 -24 -1 -6 9 -11 8 -21 -4 -7 -8 -22 -15 -34 -14 -21 0 -21 0
2 9 31 13 28 30 -5 31 l-28 1 25 8 25 8 -27 1 c-26 1 -28 4 -26 44 1 40 2 41
5 6 3 -30 9 -37 36 -45z m2227 -64 c58 -10 116 -23 130 -28 l25 -9 -36 -16
c-44 -18 -130 -37 -169 -37 -17 0 -30 -5 -30 -11 0 -12 -68 -10 -410 11 -107
7 -198 17 -201 22 -3 5 -21 7 -40 4 -19 -3 -70 -2 -114 1 -69 6 -75 8 -45 14
65 14 362 51 367 45 3 -3 -17 -8 -45 -12 -27 -3 -62 -14 -77 -24 l-27 -17 26
0 c15 0 29 3 32 8 3 5 19 9 36 9 40 0 134 28 172 51 28 17 45 18 166 13 74 -3
182 -14 240 -24z m-5265 -181 c28 -5 62 -10 78 -9 15 0 27 -5 27 -11 0 -6 -8
-8 -19 -4 -11 3 -26 -1 -36 -11 -11 -11 -20 -13 -26 -7 -6 6 -21 8 -35 5 -23
-4 -23 -5 -7 -18 17 -13 17 -14 -2 -8 -19 5 -19 5 -1 -7 15 -9 23 -9 39 0 12
8 16 8 12 2 -4 -7 5 -14 23 -17 19 -4 29 -12 28 -22 -1 -13 8 -17 39 -18 22
-1 43 3 46 8 3 5 26 11 50 13 29 3 37 2 24 -4 -11 -5 -23 -7 -28 -4 -4 2 -14
-3 -23 -11 -8 -9 -24 -17 -35 -17 -55 -4 -80 -7 -141 -18 -37 -6 -77 -16 -90
-21 -23 -10 -23 -10 2 -6 22 4 187 9 218 7 6 -1 12 -5 12 -10 0 -13 -131 -31
-229 -31 l-91 0 0 109 0 110 38 4 c64 6 76 6 127 -4z m-574 -621 c1 -7 1 -18
0 -25 -1 -6 3 -14 9 -18 5 -3 10 -1 10 5 0 7 9 9 23 5 42 -13 78 -75 42 -75
-8 0 -22 14 -30 31 -9 17 -19 29 -21 26 -3 -2 7 -26 21 -52 24 -47 26 -85 3
-85 -15 0 -79 39 -111 69 -31 28 -29 47 10 99 25 33 42 41 44 20z m1053 -307
c22 -67 19 -70 -67 -75 -37 -3 -71 34 -65 69 4 18 0 30 -15 40 -20 14 -20 14
4 34 13 11 32 20 42 21 14 0 17 5 12 23 -14 49 71 -57 89 -112z"/>
<path d="M5320 6591 c-8 -6 -17 -8 -21 -5 -4 2 -10 -4 -14 -13 -3 -10 -1 -19
4 -21 6 -2 8 -9 4 -15 -4 -6 0 -8 9 -4 13 4 15 -2 14 -34 -1 -21 2 -39 8 -39
5 0 18 -8 29 -17 11 -10 17 -12 13 -5 -4 6 -2 12 4 12 7 0 9 -8 5 -19 -8 -27
25 -45 50 -27 15 11 20 28 27 94 1 6 5 12 10 12 4 0 8 7 8 15 0 18 -21 20 -39
3 -11 -11 -11 -9 -1 11 10 20 9 26 -9 44 -18 19 -25 20 -51 10 -17 -6 -28 -7
-24 -2 7 12 -7 11 -26 0z"/>
<path d="M9059 8413 c-6 -79 -6 -95 -2 -79 3 11 11 26 19 34 16 16 18 8 4 -18
-7 -12 -7 -28 0 -44 6 -16 6 -27 0 -31 -6 -4 -10 4 -10 17 0 17 -3 19 -9 9 -5
-7 -14 -10 -20 -7 -21 13 -11 -6 14 -25 16 -13 22 -26 18 -37 -5 -14 -3 -15 7
-5 11 10 16 9 28 -5 8 -9 6 -4 -3 12 -12 21 -14 30 -6 36 7 4 10 19 7 33 -3
15 0 27 5 27 5 0 9 -6 9 -14 0 -7 7 -19 15 -26 12 -10 15 -10 15 4 0 9 5 16
10 16 6 0 10 -4 10 -10 0 -5 4 -10 9 -10 5 0 1 21 -8 46 -15 43 -15 46 2 58 9
7 17 16 17 20 0 9 -130 8 -131 -1z"/>
<path d="M9200 8408 c0 -7 3 -23 6 -36 6 -22 8 -22 25 -6 18 16 19 16 19 -9 0
-35 18 -44 29 -15 10 26 15 18 25 -40 4 -20 2 -31 -4 -27 -19 12 -31 -5 -19
-28 7 -12 13 -51 15 -87 5 -91 4 -90 19 -40 11 37 13 40 14 18 2 -57 20 -26
23 39 3 72 22 98 24 34 1 -21 7 -47 13 -57 11 -18 12 -18 7 1 -2 11 -7 36 -11
55 -6 34 -6 35 12 15 44 -51 52 -44 10 8 -29 35 -47 68 -47 84 0 23 2 24 17
12 14 -13 15 -12 5 6 -6 11 -17 35 -24 53 -13 32 -13 32 -85 32 -52 0 -73 -4
-73 -12z"/>
<path d="M9004 8271 c4 -6 2 -11 -3 -11 -6 0 -11 -6 -11 -13 0 -8 -9 -22 -21
-33 -12 -10 -30 -31 -40 -45 -18 -26 -18 -26 6 -37 22 -10 23 -9 20 24 -2 18
1 31 6 28 5 -3 9 -1 9 4 0 13 35 21 49 13 7 -5 2 -12 -14 -21 -24 -13 -34 -30
-16 -30 5 0 11 -17 15 -37 3 -21 13 -51 21 -67 8 -15 13 -40 10 -55 -2 -14 0
-10 6 9 21 68 20 67 29 44 11 -29 22 -35 37 -18 9 9 9 15 2 19 -16 10 -29 53
-22 71 5 13 9 12 27 -8 12 -12 30 -30 41 -38 19 -14 19 -14 4 5 -9 11 -19 32
-23 47 -3 15 -17 35 -31 44 -14 9 -25 21 -25 26 0 16 -40 67 -62 79 -15 8 -19
8 -14 0z"/>
<path d="M8470 3233 c0 -3 7 -15 16 -25 18 -19 13 -24 -35 -30 -36 -4 -36 -23
-1 -38 22 -9 33 -22 41 -52 12 -48 6 -58 -21 -33 -19 18 -20 17 -20 -6 -1 -21
-2 -22 -11 -6 -10 18 -39 24 -39 8 0 -5 -7 -17 -16 -25 -13 -14 -14 -26 -4
-93 6 -43 19 -136 29 -208 l17 -130 -34 -3 c-41 -4 -61 11 -61 46 0 79 -21
105 -107 126 l-65 16 -63 -29 c-37 -18 -68 -41 -76 -56 -7 -14 -17 -25 -22
-25 -4 0 -8 -20 -8 -44 0 -45 -10 -56 -50 -56 -9 0 -23 -7 -30 -15 -7 -9 -19
-14 -27 -11 -8 4 -13 -2 -13 -16 0 -17 -3 -18 -15 -8 -8 7 -25 10 -38 6 -50
-12 -73 -44 -117 -158 -45 -118 -81 -183 -95 -170 -4 4 -5 -12 -2 -36 4 -36 3
-41 -9 -31 -8 6 -14 8 -14 3 0 -5 14 -21 32 -36 l33 -27 -52 18 c-62 23 -70
11 -23 -34 17 -16 30 -35 30 -42 0 -17 90 -74 103 -66 6 4 8 0 4 -11 -4 -11 5
-39 25 -74 22 -42 26 -52 11 -40 -15 14 -26 16 -54 8 l-34 -9 23 19 23 19 -34
-6 c-37 -6 -58 10 -38 30 8 8 6 16 -6 29 -15 17 -15 18 0 18 10 0 17 -5 17
-12 0 -6 3 -8 7 -5 3 4 15 0 25 -10 32 -28 31 -7 -1 26 -38 39 -66 49 -111 40
-19 -3 -31 -7 -26 -8 6 0 1 -8 -10 -16 -18 -15 -18 -15 7 -9 31 6 50 -23 26
-41 -18 -13 -40 -55 -33 -62 3 -4 15 6 27 21 29 36 42 16 22 -32 -16 -39 -22
-141 -10 -187 5 -19 -1 -12 -15 18 -19 40 -26 47 -43 41 -11 -3 -57 -9 -102
-11 -46 -3 -83 -8 -83 -12 0 -3 16 -31 35 -60 91 -137 102 -164 139 -330 20
-89 36 -173 36 -186 l0 -25 1095 0 1095 0 -3 718 -2 717 -154 3 c-85 1 -158
-1 -162 -5 -3 -5 8 -102 26 -218 18 -115 42 -268 53 -340 11 -71 16 -134 12
-138 -4 -5 -58 -10 -119 -12 -93 -3 -110 -1 -101 10 9 11 0 12 -49 8 -80 -7
-114 1 -106 27 4 11 2 20 -4 20 -5 0 -8 16 -5 38 2 20 2 31 -2 25 -8 -17 -44
-17 -44 0 0 7 5 18 12 25 9 9 8 12 -4 12 -34 0 -30 40 4 52 5 2 -1 57 -11 123
-11 66 -25 157 -31 203 -14 104 -17 111 -41 105 -14 -4 -19 0 -19 14 0 10 5
24 12 31 9 9 9 12 -4 12 -20 0 -18 35 3 52 14 12 13 27 -10 167 -16 95 -31
156 -38 159 -14 4 -18 32 -5 32 5 0 7 14 4 30 -3 21 -10 30 -23 30 -13 0 -19
7 -19 24 0 40 53 58 152 51 103 -7 92 -1 -132 66 -91 27 -178 55 -195 63 -42
21 -134 46 -166 46 -15 0 -31 5 -34 10 -7 11 -45 14 -45 3z m-10 -922 c23
-177 31 -266 24 -280 -9 -19 -12 -18 -76 22 -52 33 -68 48 -73 72 -4 24 -8 27
-15 15 -8 -13 -10 -13 -10 2 0 28 -19 31 -30 4 -5 -14 -11 -26 -14 -26 -10 0
7 227 18 245 7 11 15 39 19 63 3 23 11 50 18 59 8 9 12 27 10 41 -3 30 13 42
59 42 l35 0 35 -259z m-578 -53 c15 -22 23 -26 29 -17 5 8 10 0 14 -24 9 -45
-30 -240 -57 -284 -23 -39 -31 -42 -22 -8 3 13 7 41 9 62 1 21 6 75 10 120 4
53 3 88 -4 100 -9 16 -10 16 -11 -7 -1 -17 -6 -8 -15 25 -8 28 -14 55 -15 62
0 20 40 2 62 -29z m-52 -172 c-6 -32 -23 -84 -37 -115 l-25 -56 -22 47 c-12
25 -35 64 -51 85 l-29 38 37 -30 c20 -16 39 -42 43 -57 4 -16 10 -28 14 -28
11 0 23 94 16 117 -12 40 -16 114 -6 108 5 -3 10 -27 10 -52 0 -69 8 -48 11
29 4 68 -5 94 -21 68 -8 -13 -10 -13 -10 -1 0 8 8 23 17 33 16 18 18 16 41
-54 22 -66 23 -78 12 -132z m189 151 c10 -23 26 -48 35 -56 20 -17 21 -40 1
-47 -10 -4 -13 -13 -9 -26 4 -15 3 -18 -7 -13 -9 6 -11 3 -6 -9 5 -11 3 -15
-4 -10 -7 4 -10 1 -7 -7 3 -8 -8 -41 -25 -74 -17 -33 -32 -55 -34 -49 -2 7
-13 9 -25 6 -18 -4 -20 -2 -14 14 5 10 11 83 14 162 2 78 7 141 9 138 9 -9 43
-164 43 -199 0 -21 -7 -52 -15 -70 -15 -29 -15 -30 0 -12 9 11 23 44 31 73 14
47 14 57 0 106 -21 73 -20 81 6 24 11 -27 24 -48 29 -48 10 0 -1 31 -31 89
-21 42 -24 51 -15 51 3 0 14 -19 24 -43z m107 -133 c-4 -9 -3 -38 0 -65 5 -39
10 -49 25 -49 11 0 19 -5 19 -11 0 -8 4 -8 15 1 11 9 20 8 44 -9 16 -12 37
-21 46 -21 32 0 166 -53 162 -64 -2 -6 -15 -43 -27 -82 l-23 -71 -63 1 c-35 1
-65 -1 -67 -4 -1 -3 -16 -16 -33 -28 -28 -19 -33 -20 -38 -6 -4 9 -1 24 6 32
11 13 11 14 0 8 -7 -4 -17 -18 -22 -30 -6 -18 -21 -26 -62 -34 -57 -11 -68 -9
-68 13 0 8 -17 23 -39 34 l-39 20 51 103 c60 123 62 128 83 198 9 30 18 61 20
68 2 6 6 12 10 12 3 0 3 -7 0 -16z"/>
</g>
</svg>
